<svg xmlns="http://www.w3.org/2000/svg" xmlns:xlink="http://www.w3.org/1999/xlink" x="0px" y="0px" viewBox="0 0 2000 2000" style="enable-background:new 0 0 2000 2000;" xml:space="preserve"><style type="text/css">	.st0{fill-rule:evenodd;clip-rule:evenodd;fill:#FAFBFC;}	.st1{fill-rule:evenodd;clip-rule:evenodd;fill:#BAE6FD;}	.st2{fill-rule:evenodd;clip-rule:evenodd;fill:#94A3B8;}	.st3{fill-rule:evenodd;clip-rule:evenodd;fill:#38BDF8;}	.st4{fill-rule:evenodd;clip-rule:evenodd;fill:#7DD3FC;}	.st5{fill-rule:evenodd;clip-rule:evenodd;fill:#0EA5E9;}	.st6{fill-rule:evenodd;clip-rule:evenodd;fill:#0369A1;}</style><g id="Background">	<rect x="0" class="st0" width="2000" height="2000"></rect></g><g id="Pattern">	<path class="st1" d="M1364.6,1120c-121.4,88.4-22.5,226.7,66.4,360.6c94,21.4,195.7,44.4,322.8-37.8c-1.9-5.4-3.7-10.8-5.3-16.3  c-1.3-4.1-2.5-8.2-3.8-12.4c-0.2,0-0.4,0-0.6,0c-8.1,0-14.6-6.6-14.6-14.6c0-5.2,2.7-9.8,6.8-12.4  C1678.5,1206.7,1589,1002,1364.6,1120z"></path>	<path class="st1" d="M516.2,1201.7c-55.1-83.2-111.9-145.5-172.9-161.5c-94.8-24.8-162.7,37.4-195.2,115.4l86.1,41.5  C333.1,1181,431.4,1182.5,516.2,1201.7z"></path>	<path class="st2" d="M949.4,875.3c8.1,0,14.6,6.6,14.6,14.6c0,8.1-6.5,14.6-14.6,14.6c-8.1,0-14.6-6.5-14.6-14.6  C934.8,881.9,941.3,875.3,949.4,875.3L949.4,875.3z M880.2,875.3c8.1,0,14.6,6.6,14.6,14.6c0,8.1-6.5,14.6-14.6,14.6  c-8.1,0-14.6-6.5-14.6-14.6C865.6,881.9,872.2,875.3,880.2,875.3L880.2,875.3z M811,875.3c8.1,0,14.6,6.6,14.6,14.6  c0,8.1-6.6,14.6-14.6,14.6c-8.1,0-14.6-6.6-14.6-14.6C796.4,881.9,803,875.3,811,875.3L811,875.3z M741.8,875.3  c8.1,0,14.6,6.6,14.6,14.6c0,8.1-6.6,14.6-14.6,14.6c-8.1,0-14.6-6.6-14.6-14.6C727.2,881.9,733.8,875.3,741.8,875.3L741.8,875.3z   M672.7,875.3c8.1,0,14.6,6.6,14.6,14.6c0,8.1-6.5,14.6-14.6,14.6c-8.1,0-14.6-6.6-14.6-14.6C658,881.9,664.6,875.3,672.7,875.3  L672.7,875.3z M603.5,875.3c8.1,0,14.6,6.6,14.6,14.6c0,8.1-6.6,14.6-14.6,14.6c-8.1,0-14.6-6.6-14.6-14.6  C588.8,881.9,595.4,875.3,603.5,875.3L603.5,875.3z M534.3,875.3c8.1,0,14.6,6.5,14.6,14.6c0,8.1-6.6,14.6-14.6,14.6  s-14.6-6.6-14.6-14.6C519.6,881.9,526.2,875.3,534.3,875.3L534.3,875.3z M465.1,875.3c8.1,0,14.6,6.6,14.6,14.6  c0,8.1-6.5,14.6-14.6,14.6c-8.1,0-14.6-6.6-14.6-14.6C450.4,881.9,457,875.3,465.1,875.3L465.1,875.3z M395.9,875.3  c8.1,0,14.6,6.6,14.6,14.6c0,8.1-6.5,14.6-14.6,14.6s-14.6-6.6-14.6-14.6C381.3,881.9,387.8,875.3,395.9,875.3L395.9,875.3z   M326.7,875.3c8.1,0,14.6,6.6,14.6,14.6c0,8.1-6.6,14.6-14.6,14.6c-8.1,0-14.6-6.6-14.6-14.6C312.1,881.9,318.6,875.3,326.7,875.3  L326.7,875.3z M257.5,875.3c8.1,0,14.6,6.6,14.6,14.6c0,8.1-6.5,14.6-14.6,14.6c-8.1,0-14.6-6.6-14.6-14.6  C242.9,881.9,249.4,875.3,257.5,875.3L257.5,875.3z M188.3,875.3c8.1,0,14.6,6.6,14.6,14.6c0,8.1-6.5,14.6-14.6,14.6  c-8.1,0-14.6-6.6-14.6-14.6C173.7,881.9,180.2,875.3,188.3,875.3L188.3,875.3z M119.1,875.3c8.1,0,14.6,6.6,14.6,14.6  c0,8.1-6.6,14.6-14.6,14.6s-14.6-6.6-14.6-14.6C104.5,881.9,111,875.3,119.1,875.3L119.1,875.3z M49.9,875.3  c8.1,0,14.6,6.6,14.6,14.6c0,8.1-6.6,14.6-14.6,14.6c-8.1,0-14.6-6.6-14.6-14.6C35.3,881.9,41.8,875.3,49.9,875.3L49.9,875.3z   M948,804.4c8.1,0,14.6,6.6,14.6,14.6c0,8.1-6.6,14.6-14.6,14.6c-8.1,0-14.6-6.6-14.6-14.6C933.4,810.9,940,804.4,948,804.4  L948,804.4z M878.8,804.4c8.1,0,14.6,6.6,14.6,14.6c0,8.1-6.5,14.6-14.6,14.6c-8.1,0-14.6-6.6-14.6-14.6S870.8,804.4,878.8,804.4  L878.8,804.4z M809.7,804.4c8.1,0,14.6,6.6,14.6,14.6c0,8.1-6.6,14.6-14.6,14.6c-8.1,0-14.6-6.5-14.6-14.6  C795,810.9,801.6,804.4,809.7,804.4L809.7,804.4z M740.5,804.4c8.1,0,14.6,6.6,14.6,14.6c0,8.1-6.6,14.6-14.6,14.6  c-8.1,0-14.6-6.5-14.6-14.6C725.8,810.9,732.4,804.4,740.5,804.4L740.5,804.4z M671.3,804.4c8.1,0,14.6,6.6,14.6,14.6  c0,8.1-6.6,14.6-14.6,14.6c-8.1,0-14.6-6.6-14.6-14.6S663.2,804.4,671.3,804.4L671.3,804.4z M602.1,804.4c8.1,0,14.6,6.6,14.6,14.6  c0,8.1-6.5,14.6-14.6,14.6c-8.1,0-14.6-6.6-14.6-14.6C587.4,810.9,594,804.4,602.1,804.4L602.1,804.4z M532.9,804.4  c8.1,0,14.6,6.6,14.6,14.6c0,8.1-6.6,14.6-14.6,14.6c-8.1,0-14.6-6.6-14.6-14.6S524.8,804.4,532.9,804.4L532.9,804.4z M463.7,804.4  c8.1,0,14.6,6.6,14.6,14.6s-6.6,14.6-14.6,14.6c-8.1,0-14.6-6.6-14.6-14.6C449.1,810.9,455.6,804.4,463.7,804.4L463.7,804.4z   M394.5,804.4c8.1,0,14.6,6.6,14.6,14.6c0,8.1-6.5,14.6-14.6,14.6c-8.1,0-14.6-6.6-14.6-14.6C379.9,810.9,386.4,804.4,394.5,804.4  L394.5,804.4z M325.3,804.4c8.1,0,14.6,6.6,14.6,14.6c0,8.1-6.6,14.6-14.6,14.6c-8.1,0-14.6-6.6-14.6-14.6S317.2,804.4,325.3,804.4  L325.3,804.4z M256.1,804.4c8.1,0,14.6,6.6,14.6,14.6s-6.6,14.6-14.6,14.6c-8.1,0-14.6-6.6-14.6-14.6S248,804.4,256.1,804.4  L256.1,804.4z M186.9,804.4c8.1,0,14.6,6.6,14.6,14.6c0,8.1-6.5,14.6-14.6,14.6c-8.1,0-14.6-6.6-14.6-14.6  C172.3,810.9,178.8,804.4,186.9,804.4L186.9,804.4z M117.7,804.4c8.1,0,14.6,6.6,14.6,14.6s-6.5,14.6-14.6,14.6  c-8.1,0-14.6-6.6-14.6-14.6S109.6,804.4,117.7,804.4L117.7,804.4z M48.5,804.4c8.1,0,14.6,6.6,14.6,14.6c0,8.1-6.6,14.6-14.6,14.6  s-14.6-6.6-14.6-14.6C33.9,810.9,40.5,804.4,48.5,804.4L48.5,804.4z M946.7,733.4c8.1,0,14.6,6.6,14.6,14.6s-6.6,14.6-14.6,14.6  c-8.1,0-14.6-6.6-14.6-14.6C932,739.9,938.6,733.4,946.7,733.4L946.7,733.4z M877.5,733.4c8.1,0,14.6,6.6,14.6,14.6  c0,8.1-6.5,14.6-14.6,14.6c-8.1,0-14.6-6.6-14.6-14.6S869.4,733.4,877.5,733.4L877.5,733.4z M808.3,733.4c8.1,0,14.6,6.6,14.6,14.6  s-6.5,14.6-14.6,14.6c-8.1,0-14.6-6.6-14.6-14.6S800.2,733.4,808.3,733.4L808.3,733.4z M739.1,733.4c8.1,0,14.6,6.6,14.6,14.6  s-6.5,14.6-14.6,14.6c-8.1,0-14.6-6.5-14.6-14.6S731,733.4,739.1,733.4L739.1,733.4z M669.9,733.4c8.1,0,14.6,6.6,14.6,14.6  s-6.6,14.6-14.6,14.6c-8.1,0-14.6-6.6-14.6-14.6S661.8,733.4,669.9,733.4L669.9,733.4z M600.7,733.4c8.1,0,14.6,6.6,14.6,14.6  s-6.5,14.6-14.6,14.6c-8.1,0-14.6-6.6-14.6-14.6C586.1,739.9,592.6,733.4,600.7,733.4L600.7,733.4z M531.5,733.4  c8.1,0,14.6,6.6,14.6,14.6s-6.6,14.6-14.6,14.6c-8.1,0-14.6-6.6-14.6-14.6S523.4,733.4,531.5,733.4L531.5,733.4z M462.3,733.4  c8.1,0,14.6,6.6,14.6,14.6s-6.6,14.6-14.6,14.6c-8.1,0-14.6-6.5-14.6-14.6S454.2,733.4,462.3,733.4L462.3,733.4z M393.1,733.4  c8.1,0,14.6,6.6,14.6,14.6c0,8.1-6.5,14.6-14.6,14.6c-8.1,0-14.6-6.5-14.6-14.6C378.5,739.9,385,733.4,393.1,733.4L393.1,733.4z   M323.9,733.4c8.1,0,14.6,6.6,14.6,14.6s-6.5,14.6-14.6,14.6c-8.1,0-14.6-6.6-14.6-14.6S315.8,733.4,323.9,733.4L323.9,733.4z   M254.7,733.4c8.1,0,14.6,6.6,14.6,14.6s-6.6,14.6-14.6,14.6c-8.1,0-14.6-6.5-14.6-14.6S246.6,733.4,254.7,733.4L254.7,733.4z   M185.5,733.4c8.1,0,14.6,6.6,14.6,14.6s-6.5,14.6-14.6,14.6c-8.1,0-14.6-6.5-14.6-14.6C170.9,739.9,177.5,733.4,185.5,733.4  L185.5,733.4z M116.3,733.4c8.1,0,14.6,6.6,14.6,14.6s-6.5,14.6-14.6,14.6c-8.1,0-14.6-6.5-14.6-14.6S108.3,733.4,116.3,733.4  L116.3,733.4z M47.1,733.4c8.1,0,14.6,6.6,14.6,14.6s-6.6,14.6-14.6,14.6c-8.1,0-14.6-6.5-14.6-14.6S39.1,733.4,47.1,733.4  L47.1,733.4z M945.3,662.4c8.1,0,14.6,6.6,14.6,14.6s-6.5,14.6-14.6,14.6c-8.1,0-14.6-6.6-14.6-14.6  C930.6,669,937.2,662.4,945.3,662.4L945.3,662.4z M876.1,662.4c8.1,0,14.6,6.6,14.6,14.6c0,8.1-6.5,14.6-14.6,14.6  s-14.6-6.6-14.6-14.6C861.4,669,868,662.4,876.1,662.4L876.1,662.4z M806.9,662.4c8.1,0,14.6,6.6,14.6,14.6  c0,8.1-6.6,14.6-14.6,14.6c-8.1,0-14.6-6.6-14.6-14.6C792.3,669,798.8,662.4,806.9,662.4L806.9,662.4z M737.7,662.4  c8.1,0,14.6,6.6,14.6,14.6c0,8.1-6.6,14.6-14.6,14.6c-8.1,0-14.6-6.6-14.6-14.6C723.1,669,729.6,662.4,737.7,662.4L737.7,662.4z   M668.5,662.4c8.1,0,14.6,6.6,14.6,14.6c0,8.1-6.6,14.6-14.6,14.6s-14.6-6.6-14.6-14.6C653.9,669,660.4,662.4,668.5,662.4  L668.5,662.4z M599.3,662.4c8.1,0,14.6,6.6,14.6,14.6s-6.5,14.6-14.6,14.6c-8.1,0-14.6-6.5-14.6-14.6  C584.7,669,591.2,662.4,599.3,662.4L599.3,662.4z M530.1,662.4c8.1,0,14.6,6.6,14.6,14.6c0,8.1-6.6,14.6-14.6,14.6  c-8.1,0-14.6-6.6-14.6-14.6C515.5,669,522,662.4,530.1,662.4L530.1,662.4z M460.9,662.4c8.1,0,14.6,6.6,14.6,14.6  c0,8.1-6.5,14.6-14.6,14.6c-8.1,0-14.6-6.6-14.6-14.6C446.3,669,452.8,662.4,460.9,662.4L460.9,662.4z M391.7,662.4  c8.1,0,14.6,6.6,14.6,14.6c0,8.1-6.5,14.6-14.6,14.6c-8.1,0-14.6-6.6-14.6-14.6C377.1,669,383.6,662.4,391.7,662.4L391.7,662.4z   M322.5,662.4c8.1,0,14.6,6.6,14.6,14.6c0,8.1-6.5,14.6-14.6,14.6c-8.1,0-14.6-6.5-14.6-14.6C307.9,669,314.4,662.4,322.5,662.4  L322.5,662.4z M253.3,662.4c8.1,0,14.6,6.6,14.6,14.6c0,8.1-6.6,14.6-14.6,14.6c-8.1,0-14.6-6.5-14.6-14.6  C238.7,669,245.3,662.4,253.3,662.4L253.3,662.4z M184.1,662.4c8.1,0,14.6,6.6,14.6,14.6c0,8.1-6.6,14.6-14.6,14.6  c-8.1,0-14.6-6.6-14.6-14.6C169.5,669,176.1,662.4,184.1,662.4L184.1,662.4z M115,662.4c8.1,0,14.6,6.6,14.6,14.6  c0,8.1-6.5,14.6-14.6,14.6c-8.1,0-14.6-6.5-14.6-14.6C100.3,669,106.9,662.4,115,662.4L115,662.4z M45.8,662.4  c8.1,0,14.6,6.6,14.6,14.6c0,8.1-6.6,14.6-14.6,14.6c-8.1,0-14.6-6.5-14.6-14.6C31.1,669,37.7,662.4,45.8,662.4L45.8,662.4z   M943.9,591.4c8.1,0,14.6,6.6,14.6,14.6s-6.6,14.6-14.6,14.6c-8.1,0-14.6-6.5-14.6-14.6S935.8,591.4,943.9,591.4L943.9,591.4z   M874.7,591.4c8.1,0,14.6,6.6,14.6,14.6s-6.6,14.6-14.6,14.6c-8.1,0-14.6-6.5-14.6-14.6S866.6,591.4,874.7,591.4L874.7,591.4z   M805.5,591.4c8.1,0,14.6,6.6,14.6,14.6c0,8.1-6.5,14.6-14.6,14.6c-8.1,0-14.6-6.5-14.6-14.6C790.9,598,797.4,591.4,805.5,591.4  L805.5,591.4z M736.3,591.4c8.1,0,14.6,6.6,14.6,14.6s-6.5,14.6-14.6,14.6c-8.1,0-14.6-6.5-14.6-14.6  C721.7,598,728.2,591.4,736.3,591.4L736.3,591.4z M667.1,591.4c8.1,0,14.6,6.6,14.6,14.6c0,8.1-6.6,14.6-14.6,14.6  c-8.1,0-14.6-6.5-14.6-14.6C652.5,598,659,591.4,667.1,591.4L667.1,591.4z M597.9,591.4c8.1,0,14.6,6.6,14.6,14.6  c0,8.1-6.5,14.6-14.6,14.6s-14.6-6.5-14.6-14.6C583.3,598,589.8,591.4,597.9,591.4L597.9,591.4z M528.7,591.4  c8.1,0,14.6,6.6,14.6,14.6c0,8.1-6.5,14.6-14.6,14.6c-8.1,0-14.6-6.5-14.6-14.6C514.1,598,520.6,591.4,528.7,591.4L528.7,591.4z   M459.5,591.4c8.1,0,14.6,6.6,14.6,14.6s-6.6,14.6-14.6,14.6c-8.1,0-14.6-6.5-14.6-14.6C444.9,598,451.4,591.4,459.5,591.4  L459.5,591.4z M390.3,591.4c8.1,0,14.6,6.6,14.6,14.6c0,8.1-6.6,14.6-14.6,14.6c-8.1,0-14.6-6.5-14.6-14.6  C375.7,598,382.3,591.4,390.3,591.4L390.3,591.4z M321.1,591.4c8.1,0,14.6,6.6,14.6,14.6c0,8.1-6.5,14.6-14.6,14.6  c-8.1,0-14.6-6.5-14.6-14.6C306.5,598,313.1,591.4,321.1,591.4L321.1,591.4z M251.9,591.4c8.1,0,14.6,6.6,14.6,14.6  c0,8.1-6.5,14.6-14.6,14.6c-8.1,0-14.6-6.6-14.6-14.6C237.3,598,243.9,591.4,251.9,591.4L251.9,591.4z M182.8,591.4  c8.1,0,14.6,6.6,14.6,14.6c0,8.1-6.5,14.6-14.6,14.6c-8.1,0-14.6-6.6-14.6-14.6C168.1,598,174.7,591.4,182.8,591.4L182.8,591.4z   M113.6,591.4c8.1,0,14.6,6.6,14.6,14.6c0,8.1-6.5,14.6-14.6,14.6c-8.1,0-14.6-6.5-14.6-14.6C98.9,598,105.5,591.4,113.6,591.4  L113.6,591.4z M44.4,591.4c8.1,0,14.6,6.6,14.6,14.6s-6.5,14.6-14.6,14.6c-8.1,0-14.6-6.5-14.6-14.6S36.3,591.4,44.4,591.4  L44.4,591.4z M942.5,520.5c8.1,0,14.6,6.5,14.6,14.6c0,8.1-6.6,14.6-14.6,14.6c-8.1,0-14.6-6.6-14.6-14.6  C927.9,527,934.4,520.5,942.5,520.5L942.5,520.5z M873.3,520.5c8.1,0,14.6,6.6,14.6,14.6c0,8.1-6.5,14.6-14.6,14.6  c-8.1,0-14.6-6.6-14.6-14.6C858.7,527,865.2,520.5,873.3,520.5L873.3,520.5z M804.1,520.5c8.1,0,14.6,6.6,14.6,14.6  c0,8.1-6.5,14.6-14.6,14.6c-8.1,0-14.6-6.6-14.6-14.6C789.5,527,796,520.5,804.1,520.5L804.1,520.5z M734.9,520.5  c8.1,0,14.6,6.6,14.6,14.6c0,8.1-6.6,14.6-14.6,14.6s-14.6-6.6-14.6-14.6C720.3,527,726.8,520.5,734.9,520.5L734.9,520.5z   M665.7,520.5c8.1,0,14.6,6.6,14.6,14.6c0,8.1-6.6,14.6-14.6,14.6c-8.1,0-14.6-6.6-14.6-14.6C651.1,527,657.6,520.5,665.7,520.5  L665.7,520.5z M596.5,520.5c8.1,0,14.6,6.6,14.6,14.6c0,8.1-6.6,14.6-14.6,14.6c-8.1,0-14.6-6.6-14.6-14.6  C581.9,527,588.4,520.5,596.5,520.5L596.5,520.5z M527.3,520.5c8.1,0,14.6,6.6,14.6,14.6c0,8.1-6.6,14.6-14.6,14.6  c-8.1,0-14.6-6.6-14.6-14.6C512.7,527,519.3,520.5,527.3,520.5L527.3,520.5z M458.1,520.5c8.1,0,14.6,6.6,14.6,14.6  c0,8.1-6.6,14.6-14.6,14.6c-8.1,0-14.6-6.6-14.6-14.6C443.5,527,450.1,520.5,458.1,520.5L458.1,520.5z M388.9,520.5  c8.1,0,14.6,6.6,14.6,14.6c0,8.1-6.5,14.6-14.6,14.6c-8.1,0-14.6-6.6-14.6-14.6C374.3,527,380.9,520.5,388.9,520.5L388.9,520.5z   M319.7,520.5c8.1,0,14.6,6.6,14.6,14.6c0,8.1-6.5,14.6-14.6,14.6c-8.1,0-14.6-6.6-14.6-14.6C305.1,527,311.7,520.5,319.7,520.5  L319.7,520.5z M250.6,520.5c8.1,0,14.6,6.6,14.6,14.6c0,8.1-6.6,14.6-14.6,14.6s-14.6-6.6-14.6-14.6  C235.9,527,242.5,520.5,250.6,520.5L250.6,520.5z M181.4,520.5c8.1,0,14.6,6.6,14.6,14.6c0,8.1-6.6,14.6-14.6,14.6  c-8.1,0-14.6-6.6-14.6-14.6C166.7,527,173.3,520.5,181.4,520.5L181.4,520.5z M112.2,520.5c8.1,0,14.6,6.6,14.6,14.6  c0,8.1-6.6,14.6-14.6,14.6c-8.1,0-14.6-6.6-14.6-14.6C97.5,527,104.1,520.5,112.2,520.5L112.2,520.5z M43,520.5  c8.1,0,14.6,6.6,14.6,14.6c0,8.1-6.6,14.6-14.6,14.6c-8.1,0-14.6-6.6-14.6-14.6C28.4,527,34.9,520.5,43,520.5L43,520.5z   M941.1,449.5c8.1,0,14.6,6.5,14.6,14.6c0,8.1-6.5,14.6-14.6,14.6c-8.1,0-14.6-6.6-14.6-14.6C926.5,456,933,449.5,941.1,449.5  L941.1,449.5z M871.9,449.5c8.1,0,14.6,6.5,14.6,14.6c0,8.1-6.6,14.6-14.6,14.6c-8.1,0-14.6-6.6-14.6-14.6  C857.3,456,863.8,449.5,871.9,449.5L871.9,449.5z M802.7,449.5c8.1,0,14.6,6.5,14.6,14.6s-6.6,14.6-14.6,14.6s-14.6-6.6-14.6-14.6  C788.1,456,794.6,449.5,802.7,449.5L802.7,449.5z M733.5,449.5c8.1,0,14.6,6.6,14.6,14.6c0,8.1-6.6,14.6-14.6,14.6  c-8.1,0-14.6-6.6-14.6-14.6C718.9,456,725.4,449.5,733.5,449.5L733.5,449.5z M664.3,449.5c8.1,0,14.6,6.5,14.6,14.6  c0,8.1-6.5,14.6-14.6,14.6c-8.1,0-14.6-6.6-14.6-14.6C649.7,456,656.2,449.5,664.3,449.5L664.3,449.5z M595.1,449.5  c8.1,0,14.6,6.5,14.6,14.6c0,8.1-6.5,14.6-14.6,14.6c-8.1,0-14.6-6.6-14.6-14.6C580.5,456,587.1,449.5,595.1,449.5L595.1,449.5z   M525.9,449.5c8.1,0,14.6,6.5,14.6,14.6c0,8.1-6.6,14.6-14.6,14.6s-14.6-6.6-14.6-14.6C511.3,456,517.9,449.5,525.9,449.5  L525.9,449.5z M456.7,449.5c8.1,0,14.6,6.5,14.6,14.6c0,8.1-6.6,14.6-14.6,14.6c-8.1,0-14.6-6.6-14.6-14.6S448.7,449.5,456.7,449.5  L456.7,449.5z M387.6,449.5c8.1,0,14.6,6.5,14.6,14.6c0,8.1-6.6,14.6-14.6,14.6c-8.1,0-14.6-6.5-14.6-14.6  C372.9,456,379.5,449.5,387.6,449.5L387.6,449.5z M318.4,449.5c8.1,0,14.6,6.5,14.6,14.6c0,8.1-6.6,14.6-14.6,14.6  c-8.1,0-14.6-6.5-14.6-14.6C303.7,456,310.3,449.5,318.4,449.5L318.4,449.5z M249.2,449.5c8.1,0,14.6,6.5,14.6,14.6  c0,8.1-6.6,14.6-14.6,14.6c-8.1,0-14.6-6.6-14.6-14.6C234.5,456,241.1,449.5,249.2,449.5L249.2,449.5z M180,449.5  c8.1,0,14.6,6.6,14.6,14.6s-6.5,14.6-14.6,14.6c-8.1,0-14.6-6.5-14.6-14.6C165.3,456,171.9,449.5,180,449.5L180,449.5z   M110.8,449.5c8.1,0,14.6,6.5,14.6,14.6c0,8.1-6.6,14.6-14.6,14.6c-8.1,0-14.6-6.5-14.6-14.6C96.2,456,102.7,449.5,110.8,449.5  L110.8,449.5z M41.6,449.5c8.1,0,14.6,6.6,14.6,14.6c0,8.1-6.6,14.6-14.6,14.6c-8.1,0-14.6-6.5-14.6-14.6  C27,456,33.5,449.5,41.6,449.5L41.6,449.5z M939.7,378.5c8.1,0,14.6,6.6,14.6,14.6c0,8.1-6.5,14.6-14.6,14.6  c-8.1,0-14.6-6.5-14.6-14.6C925.1,385,931.6,378.5,939.7,378.5L939.7,378.5z M870.5,378.5c8.1,0,14.6,6.6,14.6,14.6  c0,8.1-6.6,14.6-14.6,14.6c-8.1,0-14.6-6.5-14.6-14.6C855.9,385,862.4,378.5,870.5,378.5L870.5,378.5z M801.3,378.5  c8.1,0,14.6,6.6,14.6,14.6c0,8.1-6.6,14.6-14.6,14.6c-8.1,0-14.6-6.5-14.6-14.6C786.7,385,793.2,378.5,801.3,378.5L801.3,378.5z   M732.1,378.5c8.1,0,14.6,6.6,14.6,14.6c0,8.1-6.5,14.6-14.6,14.6c-8.1,0-14.6-6.6-14.6-14.6C717.5,385,724.1,378.5,732.1,378.5  L732.1,378.5z M662.9,378.5c8.1,0,14.6,6.6,14.6,14.6c0,8.1-6.5,14.6-14.6,14.6c-8.1,0-14.6-6.5-14.6-14.6  C648.3,385,654.9,378.5,662.9,378.5L662.9,378.5z M593.7,378.5c8.1,0,14.6,6.6,14.6,14.6c0,8.1-6.6,14.6-14.6,14.6  c-8.1,0-14.6-6.5-14.6-14.6C579.1,385.1,585.7,378.5,593.7,378.5L593.7,378.5z M524.6,378.5c8.1,0,14.6,6.6,14.6,14.6  c0,8.1-6.6,14.6-14.6,14.6c-8.1,0-14.6-6.5-14.6-14.6C509.9,385.1,516.5,378.5,524.6,378.5L524.6,378.5z M455.4,378.5  c8.1,0,14.6,6.6,14.6,14.6c0,8.1-6.5,14.6-14.6,14.6c-8.1,0-14.6-6.6-14.6-14.6C440.7,385.1,447.3,378.5,455.4,378.5L455.4,378.5z   M386.2,378.5c8.1,0,14.6,6.5,14.6,14.6c0,8.1-6.6,14.6-14.6,14.6c-8.1,0-14.6-6.6-14.6-14.6C371.5,385.1,378.1,378.5,386.2,378.5  L386.2,378.5z M317,378.5c8.1,0,14.6,6.6,14.6,14.6c0,8.1-6.6,14.6-14.6,14.6c-8.1,0-14.6-6.6-14.6-14.6  C302.3,385.1,308.9,378.5,317,378.5L317,378.5z M247.8,378.5c8.1,0,14.6,6.6,14.6,14.6c0,8.1-6.5,14.6-14.6,14.6  c-8.1,0-14.6-6.6-14.6-14.6C233.2,385.1,239.7,378.5,247.8,378.5L247.8,378.5z M178.6,378.5c8.1,0,14.6,6.6,14.6,14.6  c0,8.1-6.5,14.6-14.6,14.6c-8.1,0-14.6-6.6-14.6-14.6C164,385.1,170.5,378.5,178.6,378.5L178.6,378.5z M109.4,378.5  c8.1,0,14.6,6.6,14.6,14.6c0,8.1-6.6,14.6-14.6,14.6s-14.6-6.6-14.6-14.6C94.8,385.1,101.3,378.5,109.4,378.5L109.4,378.5z   M40.2,378.5c8.1,0,14.6,6.6,14.6,14.6c0,8.1-6.6,14.6-14.6,14.6s-14.6-6.6-14.6-14.6C25.6,385.1,32.1,378.5,40.2,378.5L40.2,378.5  z M938.3,307.5c8.1,0,14.6,6.5,14.6,14.6c0,8.1-6.6,14.6-14.6,14.6s-14.6-6.6-14.6-14.6C923.7,314.1,930.2,307.5,938.3,307.5  L938.3,307.5z M869.1,307.5c8.1,0,14.6,6.5,14.6,14.6c0,8.1-6.6,14.6-14.6,14.6s-14.6-6.6-14.6-14.6  C854.5,314.1,861,307.5,869.1,307.5L869.1,307.5z M799.9,307.5c8.1,0,14.6,6.5,14.6,14.6c0,8.1-6.6,14.6-14.6,14.6  c-8.1,0-14.6-6.5-14.6-14.6C785.3,314.1,791.9,307.5,799.9,307.5L799.9,307.5z M730.7,307.5c8.1,0,14.6,6.5,14.6,14.6  c0,8.1-6.6,14.6-14.6,14.6c-8.1,0-14.6-6.5-14.6-14.6C716.1,314.1,722.7,307.5,730.7,307.5L730.7,307.5z M661.6,307.5  c8.1,0,14.6,6.6,14.6,14.6c0,8.1-6.6,14.6-14.6,14.6c-8.1,0-14.6-6.5-14.6-14.6S653.5,307.5,661.6,307.5L661.6,307.5z M592.4,307.5  c8.1,0,14.6,6.5,14.6,14.6c0,8.1-6.5,14.6-14.6,14.6c-8.1,0-14.6-6.6-14.6-14.6C577.7,314.1,584.3,307.5,592.4,307.5L592.4,307.5z   M523.2,307.5c8.1,0,14.6,6.5,14.6,14.6c0,8.1-6.6,14.6-14.6,14.6c-8.1,0-14.6-6.6-14.6-14.6C508.5,314.1,515.1,307.5,523.2,307.5  L523.2,307.5z M454,307.5c8.1,0,14.6,6.6,14.6,14.6c0,8.1-6.6,14.6-14.6,14.6c-8.1,0-14.6-6.6-14.6-14.6  C439.3,314.1,445.9,307.5,454,307.5L454,307.5z M384.8,307.5c8.1,0,14.6,6.5,14.6,14.6c0,8.1-6.5,14.6-14.6,14.6  s-14.6-6.6-14.6-14.6C370.2,314.1,376.7,307.5,384.8,307.5L384.8,307.5z M315.6,307.5c8.1,0,14.6,6.5,14.6,14.6  c0,8.1-6.6,14.6-14.6,14.6c-8.1,0-14.6-6.6-14.6-14.6C301,314.1,307.5,307.5,315.6,307.5L315.6,307.5z M246.4,307.5  c8.1,0,14.6,6.5,14.6,14.6c0,8.1-6.6,14.6-14.6,14.6c-8.1,0-14.6-6.6-14.6-14.6C231.8,314.1,238.3,307.5,246.4,307.5L246.4,307.5z   M177.2,307.5c8.1,0,14.6,6.6,14.6,14.6c0,8.1-6.6,14.6-14.6,14.6c-8.1,0-14.6-6.6-14.6-14.6C162.6,314.1,169.1,307.5,177.2,307.5  L177.2,307.5z M108,307.5c8.1,0,14.6,6.5,14.6,14.6c0,8.1-6.6,14.6-14.6,14.6s-14.6-6.6-14.6-14.6C93.4,314.1,99.9,307.5,108,307.5  L108,307.5z M38.8,307.5c8.1,0,14.6,6.5,14.6,14.6c0,8.1-6.6,14.6-14.6,14.6c-8.1,0-14.6-6.6-14.6-14.6  C24.2,314.1,30.7,307.5,38.8,307.5L38.8,307.5z M936.9,236.5c8.1,0,14.6,6.6,14.6,14.6c0,8.1-6.6,14.6-14.6,14.6  c-8.1,0-14.6-6.6-14.6-14.6C922.3,243.1,928.9,236.5,936.9,236.5L936.9,236.5z M867.7,236.5c8.1,0,14.6,6.6,14.6,14.6  c0,8.1-6.6,14.6-14.6,14.6c-8.1,0-14.6-6.5-14.6-14.6C853.1,243.1,859.7,236.5,867.7,236.5L867.7,236.5z M798.5,236.5  c8.1,0,14.6,6.6,14.6,14.6c0,8.1-6.5,14.6-14.6,14.6c-8.1,0-14.6-6.6-14.6-14.6C783.9,243.1,790.5,236.5,798.5,236.5L798.5,236.5z   M729.4,236.5c8.1,0,14.6,6.6,14.6,14.6c0,8.1-6.6,14.6-14.6,14.6c-8.1,0-14.6-6.5-14.6-14.6C714.7,243.1,721.3,236.5,729.4,236.5  L729.4,236.5z M660.2,236.6c8.1,0,14.6,6.5,14.6,14.6c0,8.1-6.6,14.6-14.6,14.6c-8.1,0-14.6-6.5-14.6-14.6  C645.5,243.1,652.1,236.5,660.2,236.6L660.2,236.6z M591,236.5c8.1,0,14.6,6.6,14.6,14.6c0,8.1-6.5,14.6-14.6,14.6  s-14.6-6.5-14.6-14.6C576.3,243.1,582.9,236.5,591,236.5L591,236.5z M521.8,236.5c8.1,0,14.6,6.6,14.6,14.6  c0,8.1-6.6,14.6-14.6,14.6c-8.1,0-14.6-6.5-14.6-14.6C507.1,243.1,513.7,236.5,521.8,236.5L521.8,236.5z M452.6,236.6  c8.1,0,14.6,6.5,14.6,14.6c0,8.1-6.6,14.6-14.6,14.6c-8.1,0-14.6-6.6-14.6-14.6C438,243.1,444.5,236.5,452.6,236.6L452.6,236.6z   M383.4,236.6c8.1,0,14.6,6.5,14.6,14.6c0,8.1-6.5,14.6-14.6,14.6c-8.1,0-14.6-6.5-14.6-14.6C368.8,243.1,375.3,236.5,383.4,236.6  L383.4,236.6z M314.2,236.6c8.1,0,14.6,6.5,14.6,14.6c0,8.1-6.5,14.6-14.6,14.6c-8.1,0-14.6-6.5-14.6-14.6  C299.6,243.1,306.1,236.5,314.2,236.6L314.2,236.6z M245,236.5c8.1,0,14.6,6.6,14.6,14.6c0,8.1-6.6,14.6-14.6,14.6  c-8.1,0-14.6-6.5-14.6-14.6C230.4,243.1,236.9,236.6,245,236.5L245,236.5z M175.8,236.5c8.1,0,14.6,6.6,14.6,14.6  c0,8.1-6.6,14.6-14.6,14.6c-8.1,0-14.6-6.5-14.6-14.6C161.2,243.1,167.7,236.6,175.8,236.5L175.8,236.5z M106.6,236.6  c8.1,0,14.6,6.5,14.6,14.6c0,8.1-6.5,14.6-14.6,14.6c-8.1,0-14.6-6.5-14.6-14.6C92,243.1,98.5,236.5,106.6,236.6L106.6,236.6z   M37.4,236.5c8.1,0,14.6,6.6,14.6,14.6c0,8.1-6.6,14.6-14.6,14.6c-8.1,0-14.6-6.5-14.6-14.6C22.8,243.1,29.3,236.5,37.4,236.5  L37.4,236.5z M935.5,165.6c8.1,0,14.6,6.6,14.6,14.6c0,8.1-6.5,14.6-14.6,14.6c-8.1,0-14.6-6.5-14.6-14.6  C920.9,172.1,927.5,165.6,935.5,165.6L935.5,165.6z M866.3,165.6c8.1,0,14.6,6.6,14.6,14.6c0,8.1-6.6,14.6-14.6,14.6  c-8.1,0-14.6-6.6-14.6-14.6C851.7,172.1,858.3,165.6,866.3,165.6L866.3,165.6z M797.2,165.6c8.1,0,14.6,6.6,14.6,14.6  c0,8.1-6.6,14.6-14.6,14.6c-8.1,0-14.6-6.6-14.6-14.6C782.5,172.1,789.1,165.6,797.2,165.6L797.2,165.6z M728,165.6  c8.1,0,14.6,6.5,14.6,14.6c0,8.1-6.6,14.6-14.6,14.6c-8.1,0-14.6-6.5-14.6-14.6C713.3,172.1,719.9,165.6,728,165.6L728,165.6z   M658.8,165.6c8.1,0,14.6,6.5,14.6,14.6c0,8.1-6.6,14.6-14.6,14.6c-8.1,0-14.6-6.6-14.6-14.6C644.1,172.1,650.7,165.6,658.8,165.6  L658.8,165.6z M589.6,165.6c8.1,0,14.6,6.5,14.6,14.6c0,8.1-6.6,14.6-14.6,14.6c-8.1,0-14.6-6.6-14.6-14.6  C575,172.1,581.5,165.6,589.6,165.6L589.6,165.6z M520.4,165.6c8.1,0,14.6,6.5,14.6,14.6c0,8.1-6.6,14.6-14.6,14.6  c-8.1,0-14.6-6.6-14.6-14.6C505.8,172.1,512.3,165.6,520.4,165.6L520.4,165.6z M451.2,165.6c8.1,0,14.6,6.5,14.6,14.6  c0,8.1-6.5,14.6-14.6,14.6c-8.1,0-14.6-6.5-14.6-14.6C436.6,172.1,443.1,165.6,451.2,165.6L451.2,165.6z M382,165.6  c8.1,0,14.6,6.6,14.6,14.6c0,8.1-6.6,14.6-14.6,14.6c-8.1,0-14.6-6.5-14.6-14.6C367.4,172.1,373.9,165.6,382,165.6L382,165.6z   M312.8,165.6c8.1,0,14.6,6.5,14.6,14.6c0,8.1-6.5,14.6-14.6,14.6c-8.1,0-14.6-6.6-14.6-14.6C298.2,172.1,304.7,165.6,312.8,165.6  L312.8,165.6z M243.6,165.6c8.1,0,14.6,6.5,14.6,14.6c0,8.1-6.6,14.6-14.6,14.6c-8.1,0-14.6-6.5-14.6-14.6  C229,172.1,235.5,165.6,243.6,165.6L243.6,165.6z M174.4,165.6c8.1,0,14.6,6.5,14.6,14.6c0,8.1-6.6,14.6-14.6,14.6  c-8.1,0-14.6-6.5-14.6-14.6C159.8,172.1,166.3,165.6,174.4,165.6L174.4,165.6z M105.2,165.6c8.1,0,14.6,6.6,14.6,14.6  c0,8.1-6.6,14.6-14.6,14.6c-8.1,0-14.6-6.5-14.6-14.6C90.6,172.1,97.2,165.6,105.2,165.6L105.2,165.6z M36,165.6  c8.1,0,14.6,6.6,14.6,14.6c0,8.1-6.5,14.6-14.6,14.6c-8.1,0-14.6-6.5-14.6-14.6C21.4,172.1,28,165.6,36,165.6L36,165.6z   M934.2,94.6c8.1,0,14.6,6.5,14.6,14.6c0,8.1-6.6,14.6-14.6,14.6c-8.1,0-14.6-6.5-14.6-14.6C919.5,101.1,926.1,94.6,934.2,94.6  L934.2,94.6z M865,94.6c8.1,0,14.6,6.6,14.6,14.6c0,8.1-6.6,14.6-14.6,14.6c-8.1,0-14.6-6.5-14.6-14.6  C850.3,101.1,856.9,94.6,865,94.6L865,94.6z M795.8,94.6c8.1,0,14.6,6.6,14.6,14.6s-6.5,14.6-14.6,14.6c-8.1,0-14.6-6.5-14.6-14.6  C781.1,101.1,787.7,94.6,795.8,94.6L795.8,94.6z M726.6,94.6c8.1,0,14.6,6.6,14.6,14.6c0,8.1-6.6,14.6-14.6,14.6  c-8.1,0-14.6-6.5-14.6-14.6C711.9,101.1,718.5,94.6,726.6,94.6L726.6,94.6z M657.4,94.6c8.1,0,14.6,6.6,14.6,14.6  c0,8.1-6.6,14.6-14.6,14.6c-8.1,0-14.6-6.5-14.6-14.6C642.8,101.1,649.3,94.6,657.4,94.6L657.4,94.6z M588.2,94.6  c8.1,0,14.6,6.6,14.6,14.6c0,8.1-6.5,14.6-14.6,14.6c-8.1,0-14.6-6.5-14.6-14.6C573.6,101.1,580.1,94.6,588.2,94.6L588.2,94.6z   M519,94.6c8.1,0,14.6,6.6,14.6,14.6c0,8.1-6.6,14.6-14.6,14.6s-14.6-6.5-14.6-14.6C504.4,101.1,510.9,94.6,519,94.6L519,94.6z   M449.8,94.6c8.1,0,14.6,6.6,14.6,14.6c0,8.1-6.6,14.6-14.6,14.6c-8.1,0-14.6-6.5-14.6-14.6C435.2,101.1,441.7,94.6,449.8,94.6  L449.8,94.6z M380.6,94.6c8.1,0,14.6,6.6,14.6,14.6c0,8.1-6.6,14.6-14.6,14.6c-8.1,0-14.6-6.6-14.6-14.6  C366,101.1,372.5,94.6,380.6,94.6L380.6,94.6z M311.4,94.6c8.1,0,14.6,6.6,14.6,14.6c0,8.1-6.5,14.6-14.6,14.6  c-8.1,0-14.6-6.6-14.6-14.6C296.8,101.1,303.3,94.6,311.4,94.6L311.4,94.6z M242.2,94.6c8.1,0,14.6,6.6,14.6,14.6  c0,8.1-6.6,14.6-14.6,14.6c-8.1,0-14.6-6.5-14.6-14.6C227.6,101.1,234.1,94.6,242.2,94.6L242.2,94.6z M173,94.6  c8.1,0,14.6,6.5,14.6,14.6s-6.5,14.6-14.6,14.6c-8.1,0-14.6-6.5-14.6-14.6C158.4,101.1,165,94.6,173,94.6L173,94.6z M103.8,94.6  c8.1,0,14.6,6.6,14.6,14.6c0,8.1-6.5,14.6-14.6,14.6c-8.1,0-14.6-6.6-14.6-14.6C89.2,101.1,95.8,94.6,103.8,94.6L103.8,94.6z   M34.6,94.6c8.1,0,14.6,6.6,14.6,14.6c0,8.1-6.6,14.6-14.6,14.6c-8.1,0-14.6-6.6-14.6-14.6C20,101.1,26.6,94.6,34.6,94.6L34.6,94.6  z M932.8,23.6c8.1,0,14.6,6.6,14.6,14.6c0,8.1-6.6,14.6-14.6,14.6c-8.1,0-14.6-6.5-14.6-14.6C918.1,30.2,924.7,23.6,932.8,23.6  L932.8,23.6z M863.6,23.6c8.1,0,14.6,6.6,14.6,14.6c0,8.1-6.6,14.6-14.6,14.6c-8.1,0-14.6-6.5-14.6-14.6  C848.9,30.2,855.5,23.6,863.6,23.6L863.6,23.6z M794.4,23.6c8.1,0,14.6,6.6,14.6,14.6c0,8.1-6.5,14.6-14.6,14.6  c-8.1,0-14.6-6.5-14.6-14.6C779.8,30.2,786.3,23.6,794.4,23.6L794.4,23.6z M725.2,23.6c8.1,0,14.6,6.6,14.6,14.6  c0,8.1-6.6,14.6-14.6,14.6c-8.1,0-14.6-6.5-14.6-14.6C710.6,30.2,717.1,23.6,725.2,23.6L725.2,23.6z M656,23.6  c8.1,0,14.6,6.6,14.6,14.6c0,8.1-6.6,14.6-14.6,14.6c-8.1,0-14.6-6.5-14.6-14.6C641.4,30.2,647.9,23.6,656,23.6L656,23.6z   M586.8,23.6c8.1,0,14.6,6.6,14.6,14.6c0,8.1-6.6,14.6-14.6,14.6c-8.1,0-14.6-6.5-14.6-14.6C572.2,30.2,578.7,23.6,586.8,23.6  L586.8,23.6z M517.6,23.6c8.1,0,14.6,6.6,14.6,14.6c0,8.1-6.6,14.6-14.6,14.6c-8.1,0-14.6-6.5-14.6-14.6  C503,30.2,509.5,23.6,517.6,23.6L517.6,23.6z M448.4,23.6c8.1,0,14.6,6.6,14.6,14.6c0,8.1-6.6,14.6-14.6,14.6  c-8.1,0-14.6-6.5-14.6-14.6C433.8,30.2,440.3,23.6,448.4,23.6L448.4,23.6z M379.2,23.6c8.1,0,14.6,6.6,14.6,14.6  c0,8.1-6.5,14.6-14.6,14.6c-8.1,0-14.6-6.5-14.6-14.6C364.6,30.2,371.1,23.6,379.2,23.6L379.2,23.6z M310,23.6  c8.1,0,14.6,6.6,14.6,14.6c0,8.1-6.6,14.6-14.6,14.6c-8.1,0-14.6-6.5-14.6-14.6C295.4,30.2,302,23.6,310,23.6L310,23.6z   M240.8,23.6c8.1,0,14.6,6.6,14.6,14.6c0,8.1-6.6,14.6-14.6,14.6c-8.1,0-14.6-6.6-14.6-14.6C226.2,30.2,232.8,23.6,240.8,23.6  L240.8,23.6z M171.6,23.6c8.1,0,14.6,6.6,14.6,14.6c0,8.1-6.6,14.6-14.6,14.6c-8.1,0-14.6-6.5-14.6-14.6  C157,30.2,163.6,23.6,171.6,23.6L171.6,23.6z M102.5,23.6c8.1,0,14.6,6.6,14.6,14.6c0,8.1-6.6,14.6-14.6,14.6  c-8.1,0-14.6-6.5-14.6-14.6C87.8,30.2,94.4,23.6,102.5,23.6L102.5,23.6z M33.3,23.6c8.1,0,14.6,6.6,14.6,14.6  c0,8.1-6.6,14.6-14.6,14.6c-8.1,0-14.6-6.5-14.6-14.6C18.6,30.2,25.2,23.6,33.3,23.6z"></path>	<path class="st2" d="M1773.2,875.3c8.1,0,14.6,6.6,14.6,14.6c0,8.1-6.6,14.6-14.6,14.6c-8.1,0-14.6-6.6-14.6-14.6  C1758.5,881.9,1765.1,875.3,1773.2,875.3L1773.2,875.3z M1980.7,875.3c8.1,0,14.6,6.6,14.6,14.6c0,8.1-6.5,14.6-14.6,14.6  c-8.1,0-14.6-6.6-14.6-14.6C1966.1,881.9,1972.6,875.3,1980.7,875.3L1980.7,875.3z M1911.5,875.3c8.1,0,14.6,6.6,14.6,14.6  c0,8.1-6.6,14.6-14.6,14.6c-8.1,0-14.6-6.6-14.6-14.6C1896.9,881.9,1903.5,875.3,1911.5,875.3L1911.5,875.3z M1842.3,875.3  c8.1,0,14.6,6.6,14.6,14.6c0,8.1-6.6,14.6-14.6,14.6c-8.1,0-14.6-6.6-14.6-14.6C1827.7,881.9,1834.3,875.3,1842.3,875.3  L1842.3,875.3z M1771.8,804.4c8.1,0,14.6,6.6,14.6,14.6s-6.6,14.6-14.6,14.6c-8.1,0-14.6-6.6-14.6-14.6  C1757.1,810.9,1763.7,804.4,1771.8,804.4L1771.8,804.4z M1979.3,804.4c8.1,0,14.6,6.6,14.6,14.6c0,8.1-6.6,14.6-14.6,14.6  c-8.1,0-14.6-6.6-14.6-14.6S1971.3,804.4,1979.3,804.4L1979.3,804.4z M1910.1,804.4c8.1,0,14.6,6.6,14.6,14.6  c0,8.1-6.5,14.6-14.6,14.6c-8.1,0-14.6-6.6-14.6-14.6S1902.1,804.4,1910.1,804.4L1910.1,804.4z M1841,804.4  c8.1,0,14.6,6.6,14.6,14.6s-6.6,14.6-14.6,14.6s-14.6-6.6-14.6-14.6C1826.3,810.9,1832.9,804.4,1841,804.4L1841,804.4z   M1770.4,733.4c8.1,0,14.6,6.6,14.6,14.6s-6.6,14.6-14.6,14.6c-8.1,0-14.6-6.6-14.6-14.6S1762.3,733.4,1770.4,733.4L1770.4,733.4z   M1978,733.4c8.1,0,14.6,6.6,14.6,14.6c0,8.1-6.6,14.6-14.6,14.6s-14.6-6.5-14.6-14.6S1969.9,733.4,1978,733.4L1978,733.4z   M1908.8,733.4c8.1,0,14.6,6.6,14.6,14.6s-6.5,14.6-14.6,14.6c-8.1,0-14.6-6.5-14.6-14.6S1900.7,733.4,1908.8,733.4L1908.8,733.4z   M1839.6,733.4c8.1,0,14.6,6.6,14.6,14.6s-6.6,14.6-14.6,14.6c-8.1,0-14.6-6.5-14.6-14.6S1831.5,733.4,1839.6,733.4L1839.6,733.4z   M1769,662.4c8.1,0,14.6,6.6,14.6,14.6c0,8.1-6.6,14.6-14.6,14.6c-8.1,0-14.6-6.6-14.6-14.6C1754.4,669,1760.9,662.4,1769,662.4  L1769,662.4z M1976.6,662.4c8.1,0,14.6,6.6,14.6,14.6c0,8.1-6.6,14.6-14.6,14.6c-8.1,0-14.6-6.5-14.6-14.6  C1961.9,669,1968.5,662.4,1976.6,662.4L1976.6,662.4z M1907.4,662.4c8.1,0,14.6,6.6,14.6,14.6c0,8.1-6.5,14.6-14.6,14.6  c-8.1,0-14.6-6.5-14.6-14.6S1899.3,662.4,1907.4,662.4L1907.4,662.4z M1838.2,662.4c8.1,0,14.6,6.6,14.6,14.6  c0,8.1-6.6,14.6-14.6,14.6c-8.1,0-14.6-6.6-14.6-14.6C1823.5,669,1830.1,662.4,1838.2,662.4L1838.2,662.4z M1767.6,591.4  c8.1,0,14.6,6.6,14.6,14.6s-6.6,14.6-14.6,14.6c-8.1,0-14.6-6.5-14.6-14.6S1759.5,591.4,1767.6,591.4L1767.6,591.4z M1975.2,591.4  c8.1,0,14.6,6.6,14.6,14.6c0,8.1-6.5,14.6-14.6,14.6c-8.1,0-14.6-6.5-14.6-14.6C1960.5,598,1967.1,591.4,1975.2,591.4L1975.2,591.4  z M1906,591.4c8.1,0,14.6,6.6,14.6,14.6c0,8.1-6.5,14.6-14.6,14.6c-8.1,0-14.6-6.5-14.6-14.6S1897.9,591.4,1906,591.4L1906,591.4z   M1836.8,591.4c8.1,0,14.6,6.6,14.6,14.6c0,8.1-6.5,14.6-14.6,14.6c-8.1,0-14.6-6.5-14.6-14.6S1828.7,591.4,1836.8,591.4  L1836.8,591.4z M1766.2,520.5c8.1,0,14.6,6.5,14.6,14.6c0,8.1-6.6,14.6-14.6,14.6c-8.1,0-14.6-6.6-14.6-14.6  C1751.6,527,1758.1,520.5,1766.2,520.5L1766.2,520.5z M1973.8,520.5c8.1,0,14.6,6.5,14.6,14.6c0,8.1-6.6,14.6-14.6,14.6  s-14.6-6.5-14.6-14.6C1959.2,527,1965.7,520.5,1973.8,520.5L1973.8,520.5z M1904.6,520.5c8.1,0,14.6,6.5,14.6,14.6  c0,8.1-6.6,14.6-14.6,14.6c-8.1,0-14.6-6.6-14.6-14.6C1890,527,1896.5,520.5,1904.6,520.5L1904.6,520.5z M1835.4,520.5  c8.1,0,14.6,6.5,14.6,14.6c0,8.1-6.6,14.6-14.6,14.6c-8.1,0-14.6-6.6-14.6-14.6C1820.8,527,1827.3,520.5,1835.4,520.5L1835.4,520.5  z M1764.8,449.5c8.1,0,14.6,6.6,14.6,14.6c0,8.1-6.6,14.6-14.6,14.6s-14.6-6.5-14.6-14.6C1750.2,456,1756.7,449.5,1764.8,449.5  L1764.8,449.5z M1972.4,449.5c8.1,0,14.6,6.6,14.6,14.6c0,8.1-6.5,14.6-14.6,14.6c-8.1,0-14.6-6.5-14.6-14.6  C1957.8,456,1964.3,449.5,1972.4,449.5L1972.4,449.5z M1903.2,449.5c8.1,0,14.6,6.6,14.6,14.6c0,8.1-6.5,14.6-14.6,14.6  s-14.6-6.5-14.6-14.6S1895.1,449.5,1903.2,449.5L1903.2,449.5z M1834,449.5c8.1,0,14.6,6.6,14.6,14.6c0,8.1-6.6,14.6-14.6,14.6  s-14.6-6.5-14.6-14.6C1819.4,456,1825.9,449.5,1834,449.5L1834,449.5z M1763.4,378.5c8.1,0,14.6,6.6,14.6,14.6  c0,8.1-6.6,14.6-14.6,14.6c-8.1,0-14.6-6.5-14.6-14.6C1748.8,385,1755.4,378.5,1763.4,378.5L1763.4,378.5z M1971,378.5  c8.1,0,14.6,6.6,14.6,14.6c0,8.1-6.5,14.6-14.6,14.6c-8.1,0-14.6-6.6-14.6-14.6C1956.4,385.1,1962.9,378.5,1971,378.5L1971,378.5z   M1901.8,378.5c8.1,0,14.6,6.6,14.6,14.6c0,8.1-6.6,14.6-14.6,14.6c-8.1,0-14.6-6.6-14.6-14.6  C1887.2,385.1,1893.7,378.5,1901.8,378.5L1901.8,378.5z M1832.6,378.5c8.1,0,14.6,6.6,14.6,14.6c0,8.1-6.5,14.6-14.6,14.6  s-14.6-6.6-14.6-14.6C1818,385.1,1824.5,378.5,1832.6,378.5L1832.6,378.5z M1762,307.5c8.1,0,14.6,6.5,14.6,14.6  c0,8.1-6.6,14.6-14.6,14.6c-8.1,0-14.6-6.6-14.6-14.6C1747.4,314.1,1754,307.5,1762,307.5L1762,307.5z M1969.6,307.5  c8.1,0,14.6,6.5,14.6,14.6c0,8.1-6.5,14.6-14.6,14.6c-8.1,0-14.6-6.6-14.6-14.6C1955,314.1,1961.5,307.5,1969.6,307.5L1969.6,307.5  z M1900.4,307.5c8.1,0,14.6,6.5,14.6,14.6c0,8.1-6.5,14.6-14.6,14.6c-8.1,0-14.6-6.6-14.6-14.6  C1885.8,314.1,1892.3,307.5,1900.4,307.5L1900.4,307.5z M1831.2,307.5c8.1,0,14.6,6.5,14.6,14.6c0,8.1-6.6,14.6-14.6,14.6  s-14.6-6.6-14.6-14.6C1816.6,314.1,1823.2,307.5,1831.2,307.5L1831.2,307.5z M1760.7,236.5c8.1,0,14.6,6.6,14.6,14.6  c0,8.1-6.6,14.6-14.6,14.6c-8.1,0-14.6-6.5-14.6-14.6C1746,243.1,1752.6,236.5,1760.7,236.5L1760.7,236.5z M1968.2,236.5  c8.1,0,14.6,6.6,14.6,14.6c0,8.1-6.5,14.6-14.6,14.6s-14.6-6.5-14.6-14.6C1953.6,243.1,1960.2,236.5,1968.2,236.5L1968.2,236.5z   M1899,236.5c8.1,0,14.6,6.6,14.6,14.6c0,8.1-6.5,14.6-14.6,14.6c-8.1,0-14.6-6.5-14.6-14.6C1884.4,243.1,1891,236.6,1899,236.5  L1899,236.5z M1829.8,236.5c8.1,0,14.6,6.6,14.6,14.6c0,8.1-6.6,14.6-14.6,14.6c-8.1,0-14.6-6.5-14.6-14.6  C1815.2,243.1,1821.8,236.5,1829.8,236.5L1829.8,236.5z M1759.3,165.6c8.1,0,14.6,6.6,14.6,14.6c0,8.1-6.5,14.6-14.6,14.6  c-8.1,0-14.6-6.5-14.6-14.6C1744.6,172.1,1751.2,165.6,1759.3,165.6L1759.3,165.6z M1966.8,165.6c8.1,0,14.6,6.5,14.6,14.6  c0,8.1-6.6,14.6-14.6,14.6c-8.1,0-14.6-6.5-14.6-14.6C1952.2,172.1,1958.8,165.6,1966.8,165.6L1966.8,165.6z M1897.7,165.6  c8.1,0,14.6,6.6,14.6,14.6c0,8.1-6.5,14.6-14.6,14.6c-8.1,0-14.6-6.5-14.6-14.6C1883,172.1,1889.6,165.6,1897.7,165.6L1897.7,165.6  z M1828.5,165.6c8.1,0,14.6,6.6,14.6,14.6c0,8.1-6.6,14.6-14.6,14.6s-14.6-6.5-14.6-14.6C1813.8,172.1,1820.4,165.6,1828.5,165.6  L1828.5,165.6z M1757.9,94.6c8.1,0,14.6,6.6,14.6,14.6c0,8.1-6.6,14.6-14.6,14.6s-14.6-6.6-14.6-14.6  C1743.2,101.1,1749.8,94.6,1757.9,94.6L1757.9,94.6z M1965.5,94.6c8.1,0,14.6,6.6,14.6,14.6c0,8.1-6.5,14.6-14.6,14.6  c-8.1,0-14.6-6.6-14.6-14.6C1950.8,101.1,1957.4,94.6,1965.5,94.6L1965.5,94.6z M1896.3,94.6c8.1,0,14.6,6.5,14.6,14.6  c0,8.1-6.5,14.6-14.6,14.6c-8.1,0-14.6-6.6-14.6-14.6C1881.6,101.1,1888.2,94.6,1896.3,94.6L1896.3,94.6z M1827.1,94.6  c8.1,0,14.6,6.5,14.6,14.6s-6.6,14.6-14.6,14.6s-14.6-6.6-14.6-14.6C1812.4,101.1,1819,94.6,1827.1,94.6L1827.1,94.6z M1756.5,23.6  c8.1,0,14.6,6.5,14.6,14.6c0,8.1-6.6,14.6-14.6,14.6c-8.1,0-14.6-6.6-14.6-14.6C1741.9,30.2,1748.4,23.6,1756.5,23.6L1756.5,23.6z   M1964.1,23.6c8.1,0,14.6,6.6,14.6,14.6c0,8.1-6.6,14.6-14.6,14.6c-8.1,0-14.6-6.5-14.6-14.6C1949.4,30.2,1956,23.6,1964.1,23.6  L1964.1,23.6z M1894.9,23.6c8.1,0,14.6,6.6,14.6,14.6c0,8.1-6.6,14.6-14.6,14.6c-8.1,0-14.6-6.5-14.6-14.6  C1880.2,30.2,1886.8,23.6,1894.9,23.6L1894.9,23.6z M1825.7,23.6c8.1,0,14.6,6.6,14.6,14.6s-6.6,14.6-14.6,14.6  c-8.1,0-14.6-6.5-14.6-14.6S1817.6,23.6,1825.7,23.6z"></path>	<path class="st2" d="M1755.1,1952.6c8.1,0,14.6,6.5,14.6,14.6c0,8.1-6.6,14.6-14.6,14.6c-8.1,0-14.6-6.6-14.6-14.6  S1747,1952.6,1755.1,1952.6L1755.1,1952.6z M1962.7,1952.6c8.1,0,14.6,6.5,14.6,14.6s-6.5,14.6-14.6,14.6  c-8.1,0-14.6-6.6-14.6-14.6C1948.1,1959.2,1954.6,1952.6,1962.7,1952.6L1962.7,1952.6z M1893.5,1952.6c8.1,0,14.6,6.5,14.6,14.6  s-6.5,14.6-14.6,14.6c-8.1,0-14.6-6.6-14.6-14.6C1878.9,1959.2,1885.4,1952.6,1893.5,1952.6L1893.5,1952.6z M1824.3,1952.6  c8.1,0,14.6,6.5,14.6,14.6c0,8.1-6.6,14.6-14.6,14.6c-8.1,0-14.6-6.6-14.6-14.6C1809.7,1959.2,1816.2,1952.6,1824.3,1952.6  L1824.3,1952.6z M1753.7,1881.7c8.1,0,14.6,6.5,14.6,14.6c0,8.1-6.6,14.6-14.6,14.6c-8.1,0-14.6-6.6-14.6-14.6  C1739.1,1888.2,1745.6,1881.7,1753.7,1881.7L1753.7,1881.7z M1961.3,1881.7c8.1,0,14.6,6.5,14.6,14.6c0,8.1-6.5,14.6-14.6,14.6  c-8.1,0-14.6-6.6-14.6-14.6C1946.7,1888.2,1953.2,1881.7,1961.3,1881.7L1961.3,1881.7z M1892.1,1881.7c8.1,0,14.6,6.5,14.6,14.6  c0,8.1-6.6,14.6-14.6,14.6c-8.1,0-14.6-6.6-14.6-14.6C1877.5,1888.2,1884,1881.7,1892.1,1881.7L1892.1,1881.7z M1822.9,1881.7  c8.1,0,14.6,6.5,14.6,14.6s-6.6,14.6-14.6,14.6c-8.1,0-14.6-6.6-14.6-14.6C1808.3,1888.2,1814.8,1881.7,1822.9,1881.7  L1822.9,1881.7z M1752.3,1810.7c8.1,0,14.6,6.5,14.6,14.6c0,8.1-6.6,14.6-14.6,14.6c-8.1,0-14.6-6.5-14.6-14.6  C1737.7,1817.2,1744.2,1810.7,1752.3,1810.7L1752.3,1810.7z M1959.9,1810.7c8.1,0,14.6,6.6,14.6,14.6s-6.5,14.6-14.6,14.6  c-8.1,0-14.6-6.5-14.6-14.6C1945.3,1817.2,1951.8,1810.7,1959.9,1810.7L1959.9,1810.7z M1890.7,1810.7c8.1,0,14.6,6.6,14.6,14.6  s-6.5,14.6-14.6,14.6c-8.1,0-14.6-6.6-14.6-14.6S1882.6,1810.7,1890.7,1810.7L1890.7,1810.7z M1821.5,1810.7  c8.1,0,14.6,6.6,14.6,14.6s-6.6,14.6-14.6,14.6c-8.1,0-14.6-6.6-14.6-14.6S1813.4,1810.7,1821.5,1810.7L1821.5,1810.7z   M1750.9,1739.7c8.1,0,14.6,6.5,14.6,14.6c0,8.1-6.6,14.6-14.6,14.6c-8.1,0-14.6-6.5-14.6-14.6S1742.9,1739.7,1750.9,1739.7  L1750.9,1739.7z M1958.5,1739.7c8.1,0,14.6,6.5,14.6,14.6c0,8.1-6.5,14.6-14.6,14.6s-14.6-6.5-14.6-14.6  S1950.4,1739.7,1958.5,1739.7L1958.5,1739.7z M1889.3,1739.7c8.1,0,14.6,6.5,14.6,14.6c0,8.1-6.5,14.6-14.6,14.6  c-8.1,0-14.6-6.5-14.6-14.6S1881.2,1739.7,1889.3,1739.7L1889.3,1739.7z M1820.1,1739.7c8.1,0,14.6,6.5,14.6,14.6  c0,8.1-6.6,14.6-14.6,14.6c-8.1,0-14.6-6.5-14.6-14.6C1805.5,1746.3,1812.1,1739.7,1820.1,1739.7L1820.1,1739.7z M1749.5,1668.7  c8.1,0,14.6,6.6,14.6,14.6c0,8.1-6.5,14.6-14.6,14.6c-8.1,0-14.6-6.5-14.6-14.6C1734.9,1675.3,1741.5,1668.7,1749.5,1668.7  L1749.5,1668.7z M1957.1,1668.7c8.1,0,14.6,6.6,14.6,14.6c0,8.1-6.6,14.6-14.6,14.6c-8.1,0-14.6-6.5-14.6-14.6  C1942.5,1675.3,1949,1668.7,1957.1,1668.7L1957.1,1668.7z M1887.9,1668.7c8.1,0,14.6,6.6,14.6,14.6c0,8.1-6.5,14.6-14.6,14.6  c-8.1,0-14.6-6.5-14.6-14.6C1873.3,1675.3,1879.9,1668.7,1887.9,1668.7L1887.9,1668.7z M1818.7,1668.7c8.1,0,14.6,6.6,14.6,14.6  c0,8.1-6.5,14.6-14.6,14.6c-8.1,0-14.6-6.5-14.6-14.6C1804.1,1675.3,1810.7,1668.7,1818.7,1668.7L1818.7,1668.7z M1748.2,1597.8  c8.1,0,14.6,6.5,14.6,14.6c0,8.1-6.6,14.6-14.6,14.6s-14.6-6.6-14.6-14.6C1733.5,1604.3,1740.1,1597.8,1748.2,1597.8L1748.2,1597.8  z M1955.7,1597.8c8.1,0,14.6,6.6,14.6,14.6c0,8.1-6.5,14.6-14.6,14.6c-8.1,0-14.6-6.6-14.6-14.6  C1941.1,1604.3,1947.7,1597.8,1955.7,1597.8L1955.7,1597.8z M1886.5,1597.8c8.1,0,14.6,6.6,14.6,14.6c0,8.1-6.6,14.6-14.6,14.6  s-14.6-6.6-14.6-14.6C1871.9,1604.3,1878.5,1597.8,1886.5,1597.8L1886.5,1597.8z M1817.4,1597.8c8.1,0,14.6,6.5,14.6,14.6  c0,8.1-6.6,14.6-14.6,14.6s-14.6-6.6-14.6-14.6C1802.7,1604.3,1809.3,1597.8,1817.4,1597.8L1817.4,1597.8z M1746.8,1526.8  c8.1,0,14.6,6.6,14.6,14.6c0,8.1-6.5,14.6-14.6,14.6c-8.1,0-14.6-6.6-14.6-14.6C1732.1,1533.3,1738.7,1526.8,1746.8,1526.8  L1746.8,1526.8z M1954.4,1526.8c8.1,0,14.6,6.6,14.6,14.6c0,8.1-6.6,14.6-14.6,14.6c-8.1,0-14.6-6.5-14.6-14.6  C1939.7,1533.3,1946.3,1526.8,1954.4,1526.8L1954.4,1526.8z M1885.2,1526.8c8.1,0,14.6,6.6,14.6,14.6s-6.6,14.6-14.6,14.6  c-8.1,0-14.6-6.6-14.6-14.6S1877.1,1526.8,1885.2,1526.8L1885.2,1526.8z M1816,1526.8c8.1,0,14.6,6.6,14.6,14.6  c0,8.1-6.6,14.6-14.6,14.6c-8.1,0-14.6-6.6-14.6-14.6C1801.3,1533.3,1807.9,1526.8,1816,1526.8L1816,1526.8z M1745.4,1455.8  c8.1,0,14.6,6.6,14.6,14.6s-6.6,14.6-14.6,14.6c-8.1,0-14.6-6.6-14.6-14.6C1730.8,1462.4,1737.3,1455.8,1745.4,1455.8  L1745.4,1455.8z M1953,1455.8c8.1,0,14.6,6.6,14.6,14.6s-6.5,14.6-14.6,14.6c-8.1,0-14.6-6.5-14.6-14.6  C1938.3,1462.4,1944.9,1455.8,1953,1455.8L1953,1455.8z M1883.8,1455.8c8.1,0,14.6,6.6,14.6,14.6c0,8.1-6.6,14.6-14.6,14.6  c-8.1,0-14.6-6.5-14.6-14.6S1875.7,1455.8,1883.8,1455.8L1883.8,1455.8z M1814.6,1455.8c8.1,0,14.6,6.6,14.6,14.6  c0,8.1-6.5,14.6-14.6,14.6c-8.1,0-14.6-6.5-14.6-14.6S1806.5,1455.8,1814.6,1455.8L1814.6,1455.8z M1744,1384.8  c8.1,0,14.6,6.6,14.6,14.6c0,8.1-6.5,14.6-14.6,14.6c-8.1,0-14.6-6.6-14.6-14.6C1729.4,1391.4,1735.9,1384.8,1744,1384.8  L1744,1384.8z M1951.6,1384.8c8.1,0,14.6,6.6,14.6,14.6c0,8.1-6.5,14.6-14.6,14.6c-8.1,0-14.6-6.5-14.6-14.6  C1936.9,1391.4,1943.5,1384.8,1951.6,1384.8L1951.6,1384.8z M1882.4,1384.8c8.1,0,14.6,6.6,14.6,14.6c0,8.1-6.6,14.6-14.6,14.6  c-8.1,0-14.6-6.5-14.6-14.6C1867.8,1391.4,1874.3,1384.8,1882.4,1384.8L1882.4,1384.8z M1813.2,1384.8c8.1,0,14.6,6.6,14.6,14.6  c0,8.1-6.6,14.6-14.6,14.6s-14.6-6.6-14.6-14.6S1805.1,1384.8,1813.2,1384.8L1813.2,1384.8z M1742.6,1313.9  c8.1,0,14.6,6.6,14.6,14.6c0,8.1-6.5,14.6-14.6,14.6s-14.6-6.5-14.6-14.6C1728,1320.4,1734.5,1313.9,1742.6,1313.9L1742.6,1313.9z   M1950.2,1313.9c8.1,0,14.6,6.6,14.6,14.6s-6.5,14.6-14.6,14.6c-8.1,0-14.6-6.6-14.6-14.6  C1935.6,1320.4,1942.1,1313.9,1950.2,1313.9L1950.2,1313.9z M1881,1313.9c8.1,0,14.6,6.6,14.6,14.6s-6.6,14.6-14.6,14.6  c-8.1,0-14.6-6.5-14.6-14.6C1866.4,1320.4,1872.9,1313.9,1881,1313.9L1881,1313.9z M1811.8,1313.9c8.1,0,14.6,6.6,14.6,14.6  c0,8.1-6.6,14.6-14.6,14.6c-8.1,0-14.6-6.5-14.6-14.6C1797.2,1320.4,1803.7,1313.9,1811.8,1313.9L1811.8,1313.9z M1741.2,1242.9  c8.1,0,14.6,6.6,14.6,14.6s-6.6,14.6-14.6,14.6c-8.1,0-14.6-6.6-14.6-14.6C1726.6,1249.4,1733.1,1242.9,1741.2,1242.9  L1741.2,1242.9z M1948.8,1242.9c8.1,0,14.6,6.6,14.6,14.6s-6.6,14.6-14.6,14.6c-8.1,0-14.6-6.6-14.6-14.6  C1934.2,1249.4,1940.7,1242.9,1948.8,1242.9L1948.8,1242.9z M1879.6,1242.9c8.1,0,14.6,6.6,14.6,14.6c0,8.1-6.6,14.6-14.6,14.6  s-14.6-6.6-14.6-14.6C1865,1249.4,1871.5,1242.9,1879.6,1242.9L1879.6,1242.9z M1810.4,1242.9c8.1,0,14.6,6.6,14.6,14.6  c0,8.1-6.6,14.6-14.6,14.6c-8.1,0-14.6-6.6-14.6-14.6C1795.8,1249.4,1802.3,1242.9,1810.4,1242.9z"></path>	<path class="st2" d="M931.4,1952.6c8.1,0,14.6,6.5,14.6,14.6c0,8.1-6.5,14.6-14.6,14.6c-8.1,0-14.6-6.6-14.6-14.6  S923.3,1952.6,931.4,1952.6L931.4,1952.6z M862.2,1952.6c8.1,0,14.6,6.5,14.6,14.6c0,8.1-6.6,14.6-14.6,14.6  c-8.1,0-14.6-6.6-14.6-14.6C847.6,1959.2,854.1,1952.6,862.2,1952.6L862.2,1952.6z M793,1952.6c8.1,0,14.6,6.5,14.6,14.6  c0,8.1-6.6,14.6-14.6,14.6s-14.6-6.6-14.6-14.6C778.4,1959.2,784.9,1952.6,793,1952.6L793,1952.6z M723.8,1952.6  c8.1,0,14.6,6.5,14.6,14.6c0,8.1-6.5,14.6-14.6,14.6c-8.1,0-14.6-6.6-14.6-14.6C709.2,1959.2,715.7,1952.6,723.8,1952.6  L723.8,1952.6z M654.6,1952.6c8.1,0,14.6,6.5,14.6,14.6c0,8.1-6.5,14.6-14.6,14.6c-8.1,0-14.6-6.6-14.6-14.6  S646.5,1952.6,654.6,1952.6L654.6,1952.6z M585.4,1952.6c8.1,0,14.6,6.5,14.6,14.6c0,8.1-6.6,14.6-14.6,14.6  c-8.1,0-14.6-6.6-14.6-14.6C570.8,1959.2,577.3,1952.6,585.4,1952.6L585.4,1952.6z M516.2,1952.6c8.1,0,14.6,6.5,14.6,14.6  c0,8.1-6.6,14.6-14.6,14.6c-8.1,0-14.6-6.6-14.6-14.6C501.6,1959.2,508.1,1952.6,516.2,1952.6L516.2,1952.6z M447,1952.6  c8.1,0,14.6,6.5,14.6,14.6c0,8.1-6.5,14.6-14.6,14.6c-8.1,0-14.6-6.6-14.6-14.6S439,1952.6,447,1952.6L447,1952.6z M377.8,1952.6  c8.1,0,14.6,6.5,14.6,14.6c0,8.1-6.6,14.6-14.6,14.6s-14.6-6.6-14.6-14.6C363.2,1959.2,369.8,1952.6,377.8,1952.6L377.8,1952.6z   M308.6,1952.6c8.1,0,14.6,6.5,14.6,14.6c0,8.1-6.6,14.6-14.6,14.6c-8.1,0-14.6-6.6-14.6-14.6  C294,1959.2,300.6,1952.6,308.6,1952.6L308.6,1952.6z M239.5,1952.6c8.1,0,14.6,6.5,14.6,14.6c0,8.1-6.5,14.6-14.6,14.6  c-8.1,0-14.6-6.6-14.6-14.6S231.4,1952.6,239.5,1952.6L239.5,1952.6z M170.3,1952.6c8.1,0,14.6,6.5,14.6,14.6s-6.5,14.6-14.6,14.6  c-8.1,0-14.6-6.6-14.6-14.6C155.6,1959.2,162.2,1952.6,170.3,1952.6L170.3,1952.6z M101.1,1952.6c8.1,0,14.6,6.5,14.6,14.6  s-6.5,14.6-14.6,14.6c-8.1,0-14.6-6.6-14.6-14.6S93,1952.6,101.1,1952.6L101.1,1952.6z M31.9,1952.6c8.1,0,14.6,6.5,14.6,14.6  c0,8.1-6.6,14.6-14.6,14.6c-8.1,0-14.6-6.6-14.6-14.6C17.2,1959.2,23.8,1952.6,31.9,1952.6L31.9,1952.6z M930,1881.7  c8.1,0,14.6,6.5,14.6,14.6c0,8.1-6.6,14.6-14.6,14.6c-8.1,0-14.6-6.5-14.6-14.6C915.4,1888.2,921.9,1881.7,930,1881.7L930,1881.7z   M860.8,1881.7c8.1,0,14.6,6.5,14.6,14.6c0,8.1-6.6,14.6-14.6,14.6c-8.1,0-14.6-6.6-14.6-14.6  C846.2,1888.2,852.7,1881.7,860.8,1881.7L860.8,1881.7z M791.6,1881.7c8.1,0,14.6,6.6,14.6,14.6c0,8.1-6.5,14.6-14.6,14.6  c-8.1,0-14.6-6.6-14.6-14.6S783.5,1881.7,791.6,1881.7L791.6,1881.7z M722.4,1881.7c8.1,0,14.6,6.6,14.6,14.6  c0,8.1-6.6,14.6-14.6,14.6c-8.1,0-14.6-6.6-14.6-14.6C707.8,1888.2,714.3,1881.7,722.4,1881.7L722.4,1881.7z M653.2,1881.7  c8.1,0,14.6,6.5,14.6,14.6c0,8.1-6.5,14.6-14.6,14.6c-8.1,0-14.6-6.6-14.6-14.6C638.6,1888.2,645.1,1881.7,653.2,1881.7  L653.2,1881.7z M584,1881.7c8.1,0,14.6,6.5,14.6,14.6c0,8.1-6.6,14.6-14.6,14.6s-14.6-6.6-14.6-14.6  C569.4,1888.2,575.9,1881.7,584,1881.7L584,1881.7z M514.8,1881.7c8.1,0,14.6,6.5,14.6,14.6c0,8.1-6.6,14.6-14.6,14.6  c-8.1,0-14.6-6.6-14.6-14.6S506.8,1881.7,514.8,1881.7L514.8,1881.7z M445.6,1881.7c8.1,0,14.6,6.5,14.6,14.6  c0,8.1-6.6,14.6-14.6,14.6c-8.1,0-14.6-6.6-14.6-14.6S437.6,1881.7,445.6,1881.7L445.6,1881.7z M376.4,1881.7  c8.1,0,14.6,6.5,14.6,14.6c0,8.1-6.5,14.6-14.6,14.6c-8.1,0-14.6-6.6-14.6-14.6C361.8,1888.2,368.4,1881.7,376.4,1881.7  L376.4,1881.7z M307.3,1881.7c8.1,0,14.6,6.5,14.6,14.6s-6.6,14.6-14.6,14.6c-8.1,0-14.6-6.6-14.6-14.6S299.2,1881.7,307.3,1881.7  L307.3,1881.7z M238.1,1881.7c8.1,0,14.6,6.5,14.6,14.6c0,8.1-6.6,14.6-14.6,14.6c-8.1,0-14.6-6.6-14.6-14.6  S230,1881.7,238.1,1881.7L238.1,1881.7z M168.9,1881.7c8.1,0,14.6,6.5,14.6,14.6c0,8.1-6.5,14.6-14.6,14.6  c-8.1,0-14.6-6.6-14.6-14.6C154.2,1888.2,160.8,1881.7,168.9,1881.7L168.9,1881.7z M99.7,1881.7c8.1,0,14.6,6.5,14.6,14.6  s-6.6,14.6-14.6,14.6s-14.6-6.6-14.6-14.6C85.1,1888.2,91.6,1881.7,99.7,1881.7L99.7,1881.7z M30.5,1881.7  c8.1,0,14.6,6.5,14.6,14.6s-6.6,14.6-14.6,14.6c-8.1,0-14.6-6.6-14.6-14.6C15.9,1888.2,22.4,1881.7,30.5,1881.7L30.5,1881.7z   M928.6,1810.7c8.1,0,14.6,6.5,14.6,14.6s-6.6,14.6-14.6,14.6c-8.1,0-14.6-6.5-14.6-14.6C914,1817.2,920.5,1810.7,928.6,1810.7  L928.6,1810.7z M859.4,1810.7c8.1,0,14.6,6.5,14.6,14.6c0,8.1-6.6,14.6-14.6,14.6c-8.1,0-14.6-6.5-14.6-14.6  C844.8,1817.2,851.3,1810.7,859.4,1810.7L859.4,1810.7z M790.2,1810.7c8.1,0,14.6,6.6,14.6,14.6s-6.6,14.6-14.6,14.6  c-8.1,0-14.6-6.5-14.6-14.6S782.1,1810.7,790.2,1810.7L790.2,1810.7z M721,1810.7c8.1,0,14.6,6.5,14.6,14.6s-6.6,14.6-14.6,14.6  c-8.1,0-14.6-6.5-14.6-14.6S712.9,1810.7,721,1810.7L721,1810.7z M651.8,1810.7c8.1,0,14.6,6.5,14.6,14.6c0,8.1-6.5,14.6-14.6,14.6  c-8.1,0-14.6-6.5-14.6-14.6S643.8,1810.7,651.8,1810.7L651.8,1810.7z M582.6,1810.7c8.1,0,14.6,6.6,14.6,14.6s-6.5,14.6-14.6,14.6  c-8.1,0-14.6-6.5-14.6-14.6S574.6,1810.7,582.6,1810.7L582.6,1810.7z M513.4,1810.7c8.1,0,14.6,6.6,14.6,14.6s-6.6,14.6-14.6,14.6  c-8.1,0-14.6-6.5-14.6-14.6S505.4,1810.7,513.4,1810.7L513.4,1810.7z M444.3,1810.7c8.1,0,14.6,6.6,14.6,14.6s-6.6,14.6-14.6,14.6  c-8.1,0-14.6-6.5-14.6-14.6S436.2,1810.7,444.3,1810.7L444.3,1810.7z M375.1,1810.7c8.1,0,14.6,6.5,14.6,14.6s-6.5,14.6-14.6,14.6  c-8.1,0-14.6-6.5-14.6-14.6C360.4,1817.2,367,1810.7,375.1,1810.7L375.1,1810.7z M305.9,1810.7c8.1,0,14.6,6.6,14.6,14.6  s-6.6,14.6-14.6,14.6c-8.1,0-14.6-6.5-14.6-14.6S297.8,1810.7,305.9,1810.7L305.9,1810.7z M236.7,1810.7c8.1,0,14.6,6.6,14.6,14.6  s-6.6,14.6-14.6,14.6c-8.1,0-14.6-6.5-14.6-14.6S228.6,1810.7,236.7,1810.7L236.7,1810.7z M167.5,1810.7c8.1,0,14.6,6.6,14.6,14.6  s-6.5,14.6-14.6,14.6c-8.1,0-14.6-6.5-14.6-14.6C152.9,1817.2,159.4,1810.7,167.5,1810.7L167.5,1810.7z M98.3,1810.7  c8.1,0,14.6,6.6,14.6,14.6s-6.5,14.6-14.6,14.6c-8.1,0-14.6-6.5-14.6-14.6S90.2,1810.7,98.3,1810.7L98.3,1810.7z M29.1,1810.7  c8.1,0,14.6,6.6,14.6,14.6s-6.6,14.6-14.6,14.6c-8.1,0-14.6-6.6-14.6-14.6S21,1810.7,29.1,1810.7L29.1,1810.7z M927.2,1739.7  c8.1,0,14.6,6.5,14.6,14.6s-6.6,14.6-14.6,14.6c-8.1,0-14.6-6.5-14.6-14.6S919.1,1739.7,927.2,1739.7L927.2,1739.7z M858,1739.7  c8.1,0,14.6,6.5,14.6,14.6c0,8.1-6.5,14.6-14.6,14.6c-8.1,0-14.6-6.6-14.6-14.6C843.4,1746.3,849.9,1739.7,858,1739.7L858,1739.7z   M788.8,1739.7c8.1,0,14.6,6.5,14.6,14.6s-6.6,14.6-14.6,14.6c-8.1,0-14.6-6.6-14.6-14.6C774.2,1746.3,780.8,1739.7,788.8,1739.7  L788.8,1739.7z M719.6,1739.7c8.1,0,14.6,6.5,14.6,14.6s-6.5,14.6-14.6,14.6c-8.1,0-14.6-6.6-14.6-14.6  C705,1746.3,711.6,1739.7,719.6,1739.7L719.6,1739.7z M650.4,1739.7c8.1,0,14.6,6.6,14.6,14.6c0,8.1-6.5,14.6-14.6,14.6  s-14.6-6.5-14.6-14.6S642.4,1739.7,650.4,1739.7L650.4,1739.7z M581.3,1739.7c8.1,0,14.6,6.5,14.6,14.6c0,8.1-6.5,14.6-14.6,14.6  c-8.1,0-14.6-6.6-14.6-14.6C566.6,1746.3,573.2,1739.7,581.3,1739.7L581.3,1739.7z M512.1,1739.7c8.1,0,14.6,6.5,14.6,14.6  c0,8.1-6.6,14.6-14.6,14.6c-8.1,0-14.6-6.6-14.6-14.6C497.4,1746.3,504,1739.7,512.1,1739.7L512.1,1739.7z M442.9,1739.7  c8.1,0,14.6,6.6,14.6,14.6c0,8.1-6.6,14.6-14.6,14.6s-14.6-6.6-14.6-14.6C428.2,1746.3,434.8,1739.7,442.9,1739.7L442.9,1739.7z   M373.7,1739.7c8.1,0,14.6,6.5,14.6,14.6c0,8.1-6.5,14.6-14.6,14.6c-8.1,0-14.6-6.6-14.6-14.6  C359,1746.3,365.6,1739.7,373.7,1739.7L373.7,1739.7z M304.5,1739.7c8.1,0,14.6,6.5,14.6,14.6c0,8.1-6.6,14.6-14.6,14.6  c-8.1,0-14.6-6.6-14.6-14.6C289.9,1746.3,296.4,1739.7,304.5,1739.7L304.5,1739.7z M235.3,1739.7c8.1,0,14.6,6.5,14.6,14.6  c0,8.1-6.6,14.6-14.6,14.6c-8.1,0-14.6-6.6-14.6-14.6C220.7,1746.3,227.2,1739.7,235.3,1739.7L235.3,1739.7z M166.1,1739.7  c8.1,0,14.6,6.5,14.6,14.6c0,8.1-6.5,14.6-14.6,14.6c-8.1,0-14.6-6.6-14.6-14.6C151.5,1746.3,158,1739.7,166.1,1739.7L166.1,1739.7  z M96.9,1739.7c8.1,0,14.6,6.5,14.6,14.6c0,8.1-6.5,14.6-14.6,14.6c-8.1,0-14.6-6.5-14.6-14.6C82.3,1746.3,88.8,1739.7,96.9,1739.7  L96.9,1739.7z M27.7,1739.7c8.1,0,14.6,6.5,14.6,14.6c0,8.1-6.6,14.6-14.6,14.6c-8.1,0-14.6-6.5-14.6-14.6  C13.1,1746.3,19.6,1739.7,27.7,1739.7L27.7,1739.7z M925.8,1668.7c8.1,0,14.6,6.6,14.6,14.6c0,8.1-6.5,14.6-14.6,14.6  c-8.1,0-14.6-6.6-14.6-14.6S917.7,1668.7,925.8,1668.7L925.8,1668.7z M856.6,1668.7c8.1,0,14.6,6.6,14.6,14.6  c0,8.1-6.6,14.6-14.6,14.6c-8.1,0-14.6-6.5-14.6-14.6C842,1675.3,848.6,1668.7,856.6,1668.7L856.6,1668.7z M787.4,1668.7  c8.1,0,14.6,6.6,14.6,14.6c0,8.1-6.5,14.6-14.6,14.6c-8.1,0-14.6-6.5-14.6-14.6C772.8,1675.3,779.4,1668.7,787.4,1668.7  L787.4,1668.7z M718.2,1668.7c8.1,0,14.6,6.6,14.6,14.6c0,8.1-6.6,14.6-14.6,14.6c-8.1,0-14.6-6.5-14.6-14.6  C703.6,1675.3,710.2,1668.7,718.2,1668.7L718.2,1668.7z M649.1,1668.7c8.1,0,14.6,6.6,14.6,14.6c0,8.1-6.6,14.6-14.6,14.6  s-14.6-6.6-14.6-14.6S641,1668.7,649.1,1668.7L649.1,1668.7z M579.9,1668.7c8.1,0,14.6,6.6,14.6,14.6c0,8.1-6.5,14.6-14.6,14.6  c-8.1,0-14.6-6.6-14.6-14.6S571.8,1668.7,579.9,1668.7L579.9,1668.7z M510.7,1668.7c8.1,0,14.6,6.6,14.6,14.6  c0,8.1-6.6,14.6-14.6,14.6s-14.6-6.5-14.6-14.6C496,1675.3,502.6,1668.7,510.7,1668.7L510.7,1668.7z M441.5,1668.7  c8.1,0,14.6,6.5,14.6,14.6c0,8.1-6.6,14.6-14.6,14.6c-8.1,0-14.6-6.6-14.6-14.6S433.4,1668.7,441.5,1668.7L441.5,1668.7z   M372.3,1668.7c8.1,0,14.6,6.6,14.6,14.6c0,8.1-6.5,14.6-14.6,14.6c-8.1,0-14.6-6.5-14.6-14.6  C357.7,1675.3,364.2,1668.7,372.3,1668.7L372.3,1668.7z M303.1,1668.7c8.1,0,14.6,6.6,14.6,14.6c0,8.1-6.6,14.6-14.6,14.6  c-8.1,0-14.6-6.6-14.6-14.6C288.5,1675.3,295,1668.7,303.1,1668.7L303.1,1668.7z M233.9,1668.7c8.1,0,14.6,6.5,14.6,14.6  s-6.6,14.6-14.6,14.6c-8.1,0-14.6-6.5-14.6-14.6C219.3,1675.3,225.8,1668.7,233.9,1668.7L233.9,1668.7z M164.7,1668.7  c8.1,0,14.6,6.5,14.6,14.6c0,8.1-6.6,14.6-14.6,14.6c-8.1,0-14.6-6.5-14.6-14.6C150.1,1675.3,156.6,1668.7,164.7,1668.7  L164.7,1668.7z M95.5,1668.7c8.1,0,14.6,6.5,14.6,14.6c0,8.1-6.5,14.6-14.6,14.6c-8.1,0-14.6-6.5-14.6-14.6  C80.9,1675.3,87.4,1668.7,95.5,1668.7L95.5,1668.7z M26.3,1668.7c8.1,0,14.6,6.6,14.6,14.6c0,8.1-6.5,14.6-14.6,14.6  c-8.1,0-14.6-6.5-14.6-14.6C11.7,1675.3,18.2,1668.7,26.3,1668.7L26.3,1668.7z M924.4,1597.8c8.1,0,14.6,6.5,14.6,14.6  c0,8.1-6.6,14.6-14.6,14.6c-8.1,0-14.6-6.6-14.6-14.6C909.8,1604.3,916.4,1597.8,924.4,1597.8L924.4,1597.8z M855.2,1597.8  c8.1,0,14.6,6.5,14.6,14.6c0,8.1-6.6,14.6-14.6,14.6c-8.1,0-14.6-6.6-14.6-14.6C840.6,1604.3,847.2,1597.8,855.2,1597.8  L855.2,1597.8z M786.1,1597.8c8.1,0,14.6,6.5,14.6,14.6c0,8.1-6.5,14.6-14.6,14.6c-8.1,0-14.6-6.6-14.6-14.6  C771.4,1604.3,778,1597.8,786.1,1597.8L786.1,1597.8z M716.9,1597.8c8.1,0,14.6,6.5,14.6,14.6c0,8.1-6.6,14.6-14.6,14.6  c-8.1,0-14.6-6.5-14.6-14.6C702.2,1604.3,708.8,1597.8,716.9,1597.8L716.9,1597.8z M647.7,1597.8c8.1,0,14.6,6.5,14.6,14.6  c0,8.1-6.5,14.6-14.6,14.6c-8.1,0-14.6-6.6-14.6-14.6C633,1604.3,639.6,1597.8,647.7,1597.8L647.7,1597.8z M578.5,1597.8  c8.1,0,14.6,6.5,14.6,14.6c0,8.1-6.5,14.6-14.6,14.6c-8.1,0-14.6-6.6-14.6-14.6C563.8,1604.3,570.4,1597.8,578.5,1597.8  L578.5,1597.8z M509.3,1597.8c8.1,0,14.6,6.5,14.6,14.6c0,8.1-6.6,14.6-14.6,14.6c-8.1,0-14.6-6.6-14.6-14.6  C494.7,1604.3,501.2,1597.8,509.3,1597.8L509.3,1597.8z M440.1,1597.8c8.1,0,14.6,6.5,14.6,14.6c0,8.1-6.6,14.6-14.6,14.6  c-8.1,0-14.6-6.6-14.6-14.6C425.5,1604.3,432,1597.8,440.1,1597.8L440.1,1597.8z M370.9,1597.8c8.1,0,14.6,6.6,14.6,14.6  c0,8.1-6.6,14.6-14.6,14.6s-14.6-6.5-14.6-14.6C356.3,1604.3,362.8,1597.8,370.9,1597.8L370.9,1597.8z M301.7,1597.8  c8.1,0,14.6,6.5,14.6,14.6c0,8.1-6.6,14.6-14.6,14.6c-8.1,0-14.6-6.6-14.6-14.6C287.1,1604.3,293.6,1597.8,301.7,1597.8  L301.7,1597.8z M232.5,1597.8c8.1,0,14.6,6.5,14.6,14.6c0,8.1-6.6,14.6-14.6,14.6c-8.1,0-14.6-6.6-14.6-14.6  C217.9,1604.3,224.4,1597.8,232.5,1597.8L232.5,1597.8z M163.3,1597.8c8.1,0,14.6,6.6,14.6,14.6c0,8.1-6.5,14.6-14.6,14.6  c-8.1,0-14.6-6.6-14.6-14.6C148.7,1604.3,155.2,1597.8,163.3,1597.8L163.3,1597.8z M94.1,1597.8c8.1,0,14.6,6.5,14.6,14.6  c0,8.1-6.5,14.6-14.6,14.6c-8.1,0-14.6-6.6-14.6-14.6C79.5,1604.3,86,1597.8,94.1,1597.8L94.1,1597.8z M24.9,1597.8  c8.1,0,14.6,6.5,14.6,14.6c0,8.1-6.6,14.6-14.6,14.6c-8.1,0-14.6-6.6-14.6-14.6C10.3,1604.3,16.9,1597.8,24.9,1597.8L24.9,1597.8z   M923.1,1526.8c8.1,0,14.6,6.6,14.6,14.6s-6.5,14.6-14.6,14.6c-8.1,0-14.6-6.6-14.6-14.6C908.4,1533.3,915,1526.8,923.1,1526.8  L923.1,1526.8z M853.9,1526.8c8.1,0,14.6,6.6,14.6,14.6c0,8.1-6.5,14.6-14.6,14.6c-8.1,0-14.6-6.6-14.6-14.6  C839.2,1533.3,845.8,1526.8,853.9,1526.8L853.9,1526.8z M784.7,1526.8c8.1,0,14.6,6.6,14.6,14.6c0,8.1-6.5,14.6-14.6,14.6  c-8.1,0-14.6-6.6-14.6-14.6S776.6,1526.8,784.7,1526.8L784.7,1526.8z M715.5,1526.8c8.1,0,14.6,6.6,14.6,14.6  c0,8.1-6.6,14.6-14.6,14.6c-8.1,0-14.6-6.5-14.6-14.6C700.8,1533.3,707.4,1526.8,715.5,1526.8L715.5,1526.8z M646.3,1526.8  c8.1,0,14.6,6.6,14.6,14.6c0,8.1-6.6,14.6-14.6,14.6c-8.1,0-14.6-6.6-14.6-14.6C631.7,1533.3,638.2,1526.8,646.3,1526.8  L646.3,1526.8z M577.1,1526.8c8.1,0,14.6,6.6,14.6,14.6s-6.6,14.6-14.6,14.6s-14.6-6.5-14.6-14.6  C562.5,1533.3,569,1526.8,577.1,1526.8L577.1,1526.8z M507.9,1526.8c8.1,0,14.6,6.6,14.6,14.6c0,8.1-6.6,14.6-14.6,14.6  c-8.1,0-14.6-6.6-14.6-14.6C493.3,1533.3,499.8,1526.8,507.9,1526.8L507.9,1526.8z M438.7,1526.8c8.1,0,14.6,6.6,14.6,14.6  c0,8.1-6.6,14.6-14.6,14.6c-8.1,0-14.6-6.5-14.6-14.6C424.1,1533.3,430.6,1526.8,438.7,1526.8L438.7,1526.8z M369.5,1526.8  c8.1,0,14.6,6.6,14.6,14.6c0,8.1-6.5,14.6-14.6,14.6c-8.1,0-14.6-6.6-14.6-14.6S361.4,1526.8,369.5,1526.8L369.5,1526.8z   M300.3,1526.8c8.1,0,14.6,6.6,14.6,14.6c0,8.1-6.6,14.6-14.6,14.6c-8.1,0-14.6-6.5-14.6-14.6  C285.7,1533.3,292.2,1526.8,300.3,1526.8L300.3,1526.8z M231.1,1526.8c8.1,0,14.6,6.6,14.6,14.6c0,8.1-6.6,14.6-14.6,14.6  c-8.1,0-14.6-6.5-14.6-14.6C216.5,1533.3,223,1526.8,231.1,1526.8L231.1,1526.8z M161.9,1526.8c8.1,0,14.6,6.6,14.6,14.6  c0,8.1-6.6,14.6-14.6,14.6c-8.1,0-14.6-6.6-14.6-14.6C147.3,1533.3,153.9,1526.8,161.9,1526.8L161.9,1526.8z M92.7,1526.8  c8.1,0,14.6,6.6,14.6,14.6c0,8.1-6.6,14.6-14.6,14.6s-14.6-6.6-14.6-14.6S84.7,1526.8,92.7,1526.8L92.7,1526.8z M23.5,1526.8  c8.1,0,14.6,6.6,14.6,14.6c0,8.1-6.6,14.6-14.6,14.6c-8.1,0-14.6-6.6-14.6-14.6C8.9,1533.3,15.5,1526.8,23.5,1526.8L23.5,1526.8z   M921.7,1455.8c8.1,0,14.6,6.6,14.6,14.6s-6.5,14.6-14.6,14.6c-8.1,0-14.6-6.5-14.6-14.6S913.6,1455.8,921.7,1455.8L921.7,1455.8z   M852.5,1455.8c8.1,0,14.6,6.6,14.6,14.6s-6.6,14.6-14.6,14.6c-8.1,0-14.6-6.5-14.6-14.6C837.8,1462.4,844.4,1455.8,852.5,1455.8  L852.5,1455.8z M783.3,1455.8c8.1,0,14.6,6.6,14.6,14.6c0,8.1-6.6,14.6-14.6,14.6c-8.1,0-14.6-6.5-14.6-14.6  C768.6,1462.4,775.2,1455.8,783.3,1455.8L783.3,1455.8z M714.1,1455.8c8.1,0,14.6,6.6,14.6,14.6s-6.5,14.6-14.6,14.6  c-8.1,0-14.6-6.5-14.6-14.6S706,1455.8,714.1,1455.8L714.1,1455.8z M644.9,1455.8c8.1,0,14.6,6.6,14.6,14.6  c0,8.1-6.5,14.6-14.6,14.6c-8.1,0-14.6-6.6-14.6-14.6S636.8,1455.8,644.9,1455.8L644.9,1455.8z M575.7,1455.8  c8.1,0,14.6,6.6,14.6,14.6c0,8.1-6.5,14.6-14.6,14.6c-8.1,0-14.6-6.6-14.6-14.6C561.1,1462.4,567.6,1455.8,575.7,1455.8  L575.7,1455.8z M506.5,1455.8c8.1,0,14.6,6.6,14.6,14.6s-6.5,14.6-14.6,14.6c-8.1,0-14.6-6.6-14.6-14.6S498.4,1455.8,506.5,1455.8  L506.5,1455.8z M437.3,1455.8c8.1,0,14.6,6.6,14.6,14.6s-6.5,14.6-14.6,14.6c-8.1,0-14.6-6.6-14.6-14.6S429.2,1455.8,437.3,1455.8  L437.3,1455.8z M368.1,1455.8c8.1,0,14.6,6.6,14.6,14.6c0,8.1-6.6,14.6-14.6,14.6c-8.1,0-14.6-6.6-14.6-14.6  C353.5,1462.4,360,1455.8,368.1,1455.8L368.1,1455.8z M298.9,1455.8c8.1,0,14.6,6.6,14.6,14.6c0,8.1-6.6,14.6-14.6,14.6  c-8.1,0-14.6-6.6-14.6-14.6S290.8,1455.8,298.9,1455.8L298.9,1455.8z M229.7,1455.8c8.1,0,14.6,6.6,14.6,14.6  c0,8.1-6.5,14.6-14.6,14.6c-8.1,0-14.6-6.6-14.6-14.6S221.7,1455.8,229.7,1455.8L229.7,1455.8z M160.5,1455.8  c8.1,0,14.6,6.6,14.6,14.6c0,8.1-6.6,14.6-14.6,14.6c-8.1,0-14.6-6.5-14.6-14.6C145.9,1462.4,152.5,1455.8,160.5,1455.8  L160.5,1455.8z M91.3,1455.8c8.1,0,14.6,6.6,14.6,14.6s-6.5,14.6-14.6,14.6c-8.1,0-14.6-6.6-14.6-14.6  C76.7,1462.4,83.3,1455.8,91.3,1455.8L91.3,1455.8z M22.2,1455.8c8.1,0,14.6,6.6,14.6,14.6c0,8.1-6.5,14.6-14.6,14.6  c-8.1,0-14.6-6.6-14.6-14.6S14.1,1455.8,22.2,1455.8L22.2,1455.8z M920.3,1384.8c8.1,0,14.6,6.6,14.6,14.6  c0,8.1-6.6,14.6-14.6,14.6c-8.1,0-14.6-6.5-14.6-14.6C905.6,1391.4,912.2,1384.8,920.3,1384.8L920.3,1384.8z M851.1,1384.8  c8.1,0,14.6,6.6,14.6,14.6c0,8.1-6.5,14.6-14.6,14.6c-8.1,0-14.6-6.6-14.6-14.6C836.4,1391.4,843,1384.8,851.1,1384.8L851.1,1384.8  z M781.9,1384.8c8.1,0,14.6,6.6,14.6,14.6c0,8.1-6.5,14.6-14.6,14.6c-8.1,0-14.6-6.5-14.6-14.6S773.8,1384.8,781.9,1384.8  L781.9,1384.8z M712.7,1384.8c8.1,0,14.6,6.6,14.6,14.6s-6.6,14.6-14.6,14.6s-14.6-6.5-14.6-14.6S704.6,1384.8,712.7,1384.8  L712.7,1384.8z M643.5,1384.8c8.1,0,14.6,6.6,14.6,14.6s-6.5,14.6-14.6,14.6s-14.6-6.5-14.6-14.6  C628.9,1391.4,635.4,1384.8,643.5,1384.8L643.5,1384.8z M574.3,1384.8c8.1,0,14.6,6.6,14.6,14.6c0,8.1-6.6,14.6-14.6,14.6  s-14.6-6.5-14.6-14.6C559.7,1391.4,566.2,1384.8,574.3,1384.8L574.3,1384.8z M505.1,1384.8c8.1,0,14.6,6.6,14.6,14.6  c0,8.1-6.6,14.6-14.6,14.6c-8.1,0-14.6-6.5-14.6-14.6S497,1384.8,505.1,1384.8L505.1,1384.8z M435.9,1384.8  c8.1,0,14.6,6.6,14.6,14.6c0,8.1-6.6,14.6-14.6,14.6c-8.1,0-14.6-6.5-14.6-14.6C421.3,1391.4,427.8,1384.8,435.9,1384.8  L435.9,1384.8z M366.7,1384.8c8.1,0,14.6,6.6,14.6,14.6s-6.5,14.6-14.6,14.6c-8.1,0-14.6-6.5-14.6-14.6  C352.1,1391.4,358.7,1384.8,366.7,1384.8L366.7,1384.8z M297.5,1384.8c8.1,0,14.6,6.6,14.6,14.6s-6.6,14.6-14.6,14.6  c-8.1,0-14.6-6.5-14.6-14.6C282.9,1391.4,289.5,1384.8,297.5,1384.8L297.5,1384.8z M228.3,1384.8c8.1,0,14.6,6.6,14.6,14.6  c0,8.1-6.6,14.6-14.6,14.6c-8.1,0-14.6-6.5-14.6-14.6C213.7,1391.4,220.3,1384.8,228.3,1384.8L228.3,1384.8z M159.2,1384.8  c8.1,0,14.6,6.6,14.6,14.6c0,8.1-6.5,14.6-14.6,14.6c-8.1,0-14.6-6.5-14.6-14.6C144.5,1391.4,151.1,1384.8,159.2,1384.8  L159.2,1384.8z M90,1384.8c8.1,0,14.6,6.6,14.6,14.6s-6.6,14.6-14.6,14.6s-14.6-6.6-14.6-14.6C75.3,1391.4,81.9,1384.8,90,1384.8  L90,1384.8z M20.8,1384.8c8.1,0,14.6,6.6,14.6,14.6c0,8.1-6.6,14.6-14.6,14.6s-14.6-6.5-14.6-14.6  C6.1,1391.4,12.7,1384.8,20.8,1384.8L20.8,1384.8z M918.9,1313.9c8.1,0,14.6,6.6,14.6,14.6s-6.6,14.6-14.6,14.6  s-14.6-6.5-14.6-14.6S910.8,1313.9,918.9,1313.9L918.9,1313.9z M849.7,1313.9c8.1,0,14.6,6.6,14.6,14.6c0,8.1-6.5,14.6-14.6,14.6  s-14.6-6.5-14.6-14.6C835.1,1320.4,841.6,1313.9,849.7,1313.9L849.7,1313.9z M780.5,1313.9c8.1,0,14.6,6.6,14.6,14.6  c0,8.1-6.6,14.6-14.6,14.6s-14.6-6.5-14.6-14.6C765.9,1320.4,772.4,1313.9,780.5,1313.9L780.5,1313.9z M711.3,1313.9  c8.1,0,14.6,6.6,14.6,14.6s-6.6,14.6-14.6,14.6c-8.1,0-14.6-6.5-14.6-14.6C696.7,1320.4,703.2,1313.9,711.3,1313.9L711.3,1313.9z   M642.1,1313.9c8.1,0,14.6,6.6,14.6,14.6s-6.5,14.6-14.6,14.6c-8.1,0-14.6-6.5-14.6-14.6C627.5,1320.4,634,1313.9,642.1,1313.9  L642.1,1313.9z M572.9,1313.9c8.1,0,14.6,6.6,14.6,14.6s-6.5,14.6-14.6,14.6c-8.1,0-14.6-6.5-14.6-14.6S564.8,1313.9,572.9,1313.9  L572.9,1313.9z M503.7,1313.9c8.1,0,14.6,6.6,14.6,14.6c0,8.1-6.6,14.6-14.6,14.6c-8.1,0-14.6-6.5-14.6-14.6  C489.1,1320.4,495.6,1313.9,503.7,1313.9L503.7,1313.9z M434.5,1313.9c8.1,0,14.6,6.6,14.6,14.6c0,8.1-6.6,14.6-14.6,14.6  c-8.1,0-14.6-6.5-14.6-14.6C419.9,1320.4,426.5,1313.9,434.5,1313.9L434.5,1313.9z M365.3,1313.9c8.1,0,14.6,6.6,14.6,14.6  s-6.5,14.6-14.6,14.6c-8.1,0-14.6-6.5-14.6-14.6C350.7,1320.4,357.3,1313.9,365.3,1313.9L365.3,1313.9z M296.2,1313.9  c8.1,0,14.6,6.6,14.6,14.6s-6.6,14.6-14.6,14.6c-8.1,0-14.6-6.5-14.6-14.6C281.5,1320.4,288.1,1313.9,296.2,1313.9L296.2,1313.9z   M227,1313.9c8.1,0,14.6,6.6,14.6,14.6s-6.6,14.6-14.6,14.6c-8.1,0-14.6-6.5-14.6-14.6C212.3,1320.4,218.9,1313.9,227,1313.9  L227,1313.9z M157.8,1313.9c8.1,0,14.6,6.6,14.6,14.6s-6.5,14.6-14.6,14.6c-8.1,0-14.6-6.5-14.6-14.6  C143.1,1320.4,149.7,1313.9,157.8,1313.9L157.8,1313.9z M88.6,1313.9c8.1,0,14.6,6.6,14.6,14.6c0,8.1-6.5,14.6-14.6,14.6  c-8.1,0-14.6-6.5-14.6-14.6S80.5,1313.9,88.6,1313.9L88.6,1313.9z M19.4,1313.9c8.1,0,14.6,6.6,14.6,14.6c0,8.1-6.6,14.6-14.6,14.6  c-8.1,0-14.6-6.5-14.6-14.6C4.8,1320.4,11.3,1313.9,19.4,1313.9L19.4,1313.9z M917.5,1242.9c8.1,0,14.6,6.6,14.6,14.6  s-6.6,14.6-14.6,14.6s-14.6-6.6-14.6-14.6S909.4,1242.9,917.5,1242.9L917.5,1242.9z M848.3,1242.9c8.1,0,14.6,6.6,14.6,14.6  c0,8.1-6.6,14.6-14.6,14.6c-8.1,0-14.6-6.6-14.6-14.6C833.7,1249.4,840.2,1242.9,848.3,1242.9L848.3,1242.9z M779.1,1242.9  c8.1,0,14.6,6.6,14.6,14.6c0,8.1-6.6,14.6-14.6,14.6c-8.1,0-14.6-6.5-14.6-14.6C764.5,1249.4,771,1242.9,779.1,1242.9L779.1,1242.9  z M709.9,1242.9c8.1,0,14.6,6.5,14.6,14.6c0,8.1-6.5,14.6-14.6,14.6c-8.1,0-14.6-6.6-14.6-14.6S701.8,1242.9,709.9,1242.9  L709.9,1242.9z M640.7,1242.9c8.1,0,14.6,6.6,14.6,14.6c0,8.1-6.6,14.6-14.6,14.6s-14.6-6.6-14.6-14.6S632.6,1242.9,640.7,1242.9  L640.7,1242.9z M571.5,1242.9c8.1,0,14.6,6.6,14.6,14.6c0,8.1-6.6,14.6-14.6,14.6c-8.1,0-14.6-6.6-14.6-14.6  C556.9,1249.4,563.5,1242.9,571.5,1242.9L571.5,1242.9z M502.3,1242.9c8.1,0,14.6,6.6,14.6,14.6c0,8.1-6.6,14.6-14.6,14.6  c-8.1,0-14.6-6.6-14.6-14.6S494.3,1242.9,502.3,1242.9L502.3,1242.9z M433.1,1242.9c8.1,0,14.6,6.6,14.6,14.6  c0,8.1-6.6,14.6-14.6,14.6c-8.1,0-14.6-6.6-14.6-14.6S425.1,1242.9,433.1,1242.9L433.1,1242.9z M364,1242.9  c8.1,0,14.6,6.5,14.6,14.6c0,8.1-6.6,14.6-14.6,14.6c-8.1,0-14.6-6.6-14.6-14.6C349.3,1249.4,355.9,1242.9,364,1242.9L364,1242.9z   M294.8,1242.9c8.1,0,14.6,6.6,14.6,14.6c0,8.1-6.5,14.6-14.6,14.6c-8.1,0-14.6-6.6-14.6-14.6S286.7,1242.9,294.8,1242.9  L294.8,1242.9z M225.6,1242.9c8.1,0,14.6,6.6,14.6,14.6c0,8.1-6.6,14.6-14.6,14.6c-8.1,0-14.6-6.6-14.6-14.6  S217.5,1242.9,225.6,1242.9L225.6,1242.9z M156.4,1242.9c8.1,0,14.6,6.6,14.6,14.6s-6.5,14.6-14.6,14.6c-8.1,0-14.6-6.6-14.6-14.6  C141.7,1249.4,148.3,1242.9,156.4,1242.9L156.4,1242.9z M87.2,1242.9c8.1,0,14.6,6.6,14.6,14.6s-6.5,14.6-14.6,14.6  c-8.1,0-14.6-6.6-14.6-14.6C72.6,1249.4,79.1,1242.9,87.2,1242.9L87.2,1242.9z M18,1242.9c8.1,0,14.6,6.6,14.6,14.6  c0,8.1-6.6,14.6-14.6,14.6s-14.6-6.6-14.6-14.6S9.9,1242.9,18,1242.9z"></path>	<path class="st3" d="M448.7,1706.8c-96,113.8-52.8,210.2,3.3,293.2h1044.9c5.9-52.8,35.1-62.7-46.8-140  c-81.9-77.3-344.3-9.9-454.8-34.9C884.9,1800.2,726.7,1425.2,448.7,1706.8z"></path>	<path class="st3" d="M452,0c59.6,88.1,133.9,161.1,71.5,223.5C402.3,344.7,117.2,704.6,288.3,847.2  c171.1,142.6,406.3-32.1,527.5-345.7c121.2-313.6,231.2-192.4,427.7-231.7C1378.2,243,1484,115.4,1496.9,0H452z"></path>	<path class="st4" d="M2000,1714c-84.4,89.6-121.9,189.6-124,286h124V1714z"></path>	<path class="st4" d="M1876,0c-1,44.1,5.4,87.4,18.1,128.7c50.9,165.5-299.6,535.5-136.7,678c53.4,46.6,154.2,66.3,242.5,57V0H1876z  "></path>	<path class="st4" d="M120.7,824.4c48.5-33.6,118.7-151.1,222.7-174.5c304.1-68.4,1084,467.7,1145.6-110.7  c19.5-183.7-203.3-261.9-430-168.1c-226.7,93.8-613.7,144.6-543.3-86c20.6-67.6,42.6-173.2,53.9-285.1H0v863.7  C46.7,858.7,89.8,845.7,120.7,824.4z"></path>	<path class="st5" d="M29.8,0c-3,34.3-0.5,73.2,8.7,117.7C69.1,265.1,50.2,357.9,0,408.5V0H29.8z"></path>	<path class="st5" d="M1130,1551.8c223.4-243.3,387.2,119.1,700-168.8c49.6-45.7,107.6-83.5,170-113.3V2000h-839.9  C1052.7,1843.1,1016,1675.9,1130,1551.8z"></path>	<path class="st5" d="M2000,408.5C1841,568.6,1368.1,303.6,1160.1,0H2000V408.5z"></path>	<path class="st4" d="M569.5,2000c27.2-269.6-7.6-575.5-272.8-473.3C164.1,1577.8,67.2,1642.6,0,1714v286H569.5z"></path>	<path class="st5" d="M0,1269.6c330.8-158.3,785-93.1,768.3,207.7c-18.2,327.2-706,151.2-738.5,522.7H0V1269.6z"></path>	<path class="st6" d="M799.1,0h28l627.8,296.6l0.2,13.3L799.1,0L799.1,0z M899.2,0l555.1,262.3l-0.2-13.3L927.2,0H899.2L899.2,0z   M999.3,0l454.1,214.6l-0.2-13.3L1027.3,0H999.3L999.3,0z M1099.5,0l353.2,166.9l-0.2-13.3L1127.5,0H1099.5L1099.5,0z M1199.6,0  l252.2,119.2l-0.2-13.3L1227.6,0H1199.6L1199.6,0z M1299.7,0L1451,71.5l-0.2-13.3L1327.7,0H1299.7L1299.7,0z M1399.9,0l50.3,23.8  l-0.2-13.3L1427.9,0H1399.9L1399.9,0z M737.7,5.1l-10.4,8.3l728.7,344.3l-0.2-13.3L737.7,5.1L737.7,5.1z M700.3,34.7L689.9,43  l766.9,362.3l-0.2-13.3L700.3,34.7L700.3,34.7z M662.9,64.4l-10.4,8.3l802.7,379.3l2.2-4.7l-0.1-7.5L662.9,64.4z"></path>	<path class="st6" d="M746.4,0h28l680.9,321.7l0.2,13.3L746.4,0L746.4,0z M846.5,0l608.2,287.4l-0.2-13.3L874.5,0H846.5L846.5,0z   M946.6,0l507.2,239.7l-0.2-13.3L974.6,0H946.6L946.6,0z M1046.8,0l406.3,192l-0.2-13.3L1074.8,0H1046.8L1046.8,0z M1146.9,0  l305.3,144.3l-0.2-13.3L1174.9,0H1146.9L1146.9,0z M1247,0l204.4,96.6l-0.2-13.3L1275,0H1247L1247,0z M1347.2,0l103.4,48.9  l-0.2-13.3L1375.2,0H1347.2L1347.2,0z M1447.3,0l2.5,1.2l0-1.2H1447.3L1447.3,0z M718,20.7L707.6,29l748.8,353.8l-0.2-13.3  L718,20.7L718,20.7z M680.6,50.3l-10.4,8.3l787,371.8l-0.2-13.3L680.6,50.3z"></path>	<polygon class="st4" points="0,1757.5 532.9,1341 295.9,1226.8 0,1084.3  "></polygon>	<path class="st6" d="M2000,158.6l-101.2-55.3l-50,134l-3.3,8.8l-8.3-4.5l-125.5-68.6l-50,134c-1.6,4.2-6.3,6.4-10.5,4.8  c-4.2-1.6-6.4-6.3-4.8-10.5l53.3-142.8l3.3-8.9l8.3,4.5l125.5,68.6l50-134l3.3-8.9l8.3,4.5l101.6,55.6V158.6L2000,158.6z M2000,438  v-46.8l-0.3,0.7l-50,134l-125.5-68.6l-8.3-4.5l-3.3,8.8l-53.3,142.8c-1.6,4.2,0.6,8.9,4.8,10.5c4.2,1.6,8.9-0.6,10.5-4.8l50-134  l125.5,68.6l8.3,4.5l3.3-8.9L2000,438L2000,438z M2000,279.3v-18.6l-45.1-24.7l-8.3-4.5l-3.3,8.9l-50,134l-125.5-68.6l-8.3-4.5  l-3.3,8.9l-53.3,142.8c-1.6,4.2,0.6,8.9,4.8,10.5c4.2,1.6,8.9-0.6,10.5-4.8l50-134l125.5,68.6l8.3,4.5l3.3-8.9l50-134L2000,279.3z"></path>	<polygon class="st4" points="1921.5,1519.4 1975,1777 2000,1757.5 2000,1084.3 1812.3,993.9  "></polygon>			<rect x="651.2" y="909.5" transform="matrix(0.2654 -0.9641 0.9641 0.2654 -432.7094 1563.8389)" class="st4" width="317.3" height="312.7"></rect>	<polygon class="st3" points="1002.7,954.4 918.5,1260.3 1071,1192.2 1155.2,886.3  "></polygon>	<polygon class="st1" points="853.7,803.3 701.2,871.4 1002.7,954.4 1155.2,886.3  "></polygon>	<polygon class="st1" points="1130.8,656.1 1534.1,641 1653.3,507.7 1250,522.8  "></polygon>	<polygon class="st3" points="1677,902.6 1653.3,507.7 1534.1,641 1557.9,1035.9  "></polygon>	<polygon class="st5" points="1557.9,1035.9 1534.1,641 1130.8,656.1  "></polygon>	<polygon class="st3" points="1790.8,1435.5 2000,1373.3 2000,1335.3 1810.5,1391.5  "></polygon>	<path class="st1" d="M1790.8,1435.5c27.5,92.6,116.5,150.1,209.2,141.2v-203.3L1790.8,1435.5z"></path>	<path class="st0" d="M171.5,1322.4c17.3,58.4,6.6,118.5-24.4,165.7c49-49.9,70.1-124.1,48.8-195.9c-1.4-4.7-2.9-9.2-4.6-13.7  L171.5,1322.4z"></path>	<polygon class="st3" points="0,1373.3 171.5,1322.4 191.3,1278.4 0,1335.3  "></polygon>	<path class="st1" d="M0,1576.6c12.6-1.2,25.2-3.6,37.7-7.3c46.7-13.9,84.6-43.4,109.4-81.2c31-47.2,41.8-107.3,24.4-165.7L0,1373.3  V1576.6z"></path>	<polygon class="st5" points="473,1864.4 510.3,2000 186,2000 171.5,1947.4  "></polygon>	<polygon class="st3" points="171.5,1947.4 186,2000 52.3,2000 19,1879.2  "></polygon>	<polygon class="st1" points="320.5,1796.3 473,1864.4 171.5,1947.4 19,1879.2  "></polygon>	<polygon class="st5" points="510.3,0 557.2,170.3 255.7,253.2 186,0  "></polygon>	<polygon class="st3" points="186,0 255.7,253.2 103.2,185.1 52.3,0  "></polygon>	<path class="st6" d="M242,2000l18.9-50.7l3.3-8.8l8.3,4.5l100.6,55H339l-66.1-36.1l-13.5,36.1H242L242,2000z M403,2000l44.9-120.4  l3.3-8.9l8.3,4.5l133.8,73.1c4,2.2,5.4,7.1,3.2,11.1c-2.2,4-7.1,5.4-11.1,3.2l-125.5-68.6L420.5,2000H403z"></path>	<path class="st6" d="M0,1660v-12l386.2-301.8l9.5,4.6L0,1660L0,1660z M0,1617.2l361.8-282.7l-9.5-4.6L0,1605.2V1617.2L0,1617.2z   M0,1574.4l327.9-256.3l-9.5-4.6L0,1562.5V1574.4L0,1574.4z M0,1531.6l294-229.8l-9.5-4.6L0,1519.7V1531.6L0,1531.6z M0,1488.9  l260.2-203.3l-9.5-4.6L0,1476.9V1488.9L0,1488.9z M0,1446.1l226.3-176.9l-9.5-4.6L0,1434.1V1446.1L0,1446.1z M0,1403.3l192.4-150.4  l-9.5-4.6l-183,143V1403.3L0,1403.3z M0,1360.5l158.6-123.9l0,0l-9.5-4.6L0,1348.6V1360.5L0,1360.5z M0,1317.7v-12l115.3-90.1  l9.5,4.6L0,1317.7L0,1317.7z M0,1275V1263l81.4-63.6l9.5,4.6L0,1275L0,1275z M0,1232.2v-12l47.5-37.1l9.5,4.6L0,1232.2L0,1232.2z   M0,1189.4l23.1-18.1l-9.5-4.6L0,1177.5V1189.4z"></path>	<path class="st6" d="M1684.5,1008.2l-7.3,5.7l-2.1-10.3L1684.5,1008.2L1684.5,1008.2z M2000,1660v-12l-164.4,128.5l2.1,10.3  L2000,1660L2000,1660z M2000,1617.2L1830.1,1750l-2.1-10.3l172-134.4V1617.2L2000,1617.2z M2000,1574.4l-177.5,138.8l-2.1-10.3  l179.7-140.4V1574.4L2000,1574.4z M2000,1531.6l-185.2,144.7l-2.1-10.3l187.3-146.4V1531.6L2000,1531.6z M2000,1488.9v-12  l-195,152.4l2.1,10.3L2000,1488.9L2000,1488.9z M2000,1446.1v-12l-202.6,158.4l2.1,10.3L2000,1446.1L2000,1446.1z M2000,1403.3v-12  l-210.3,164.3l2.1,10.3L2000,1403.3L2000,1403.3z M2000,1360.5v-12l-217.9,170.3l2.1,10.3l0,0L2000,1360.5L2000,1360.5z   M2000,1317.7l-223.4,174.6l-2.1-10.3l225.6-176.3V1317.7L2000,1317.7z M2000,1275l-231.1,180.6l-2.1-10.3L2000,1263V1275  L2000,1275z M2000,1232.2l-238.7,186.6l-2.1-10.3l240.9-188.2V1232.2L2000,1232.2z M2000,1189.4L1753.6,1382l-2.1-10.3l248.5-194.2  V1189.4L2000,1189.4z M1989.3,1155l-9.5-4.6l-235.9,184.4l2.1,10.3L1989.3,1155L1989.3,1155z M1955.4,1138.7l-9.5-4.6l-209.7,163.9  l2.1,10.3L1955.4,1138.7L1955.4,1138.7z M1921.5,1122.4l-9.5-4.6l-183.5,143.4l2.1,10.3L1921.5,1122.4L1921.5,1122.4z   M1887.7,1106.1l-9.5-4.6l-157.3,122.9l2.1,10.3L1887.7,1106.1L1887.7,1106.1z M1853.8,1089.8l-9.5-4.6l-131.1,102.4l2.1,10.3  L1853.8,1089.8L1853.8,1089.8z M1819.9,1073.5l-112.2,87.7l-2.1-10.3l104.9-82L1819.9,1073.5L1819.9,1073.5z M1786.1,1057.2  l-86,67.2l-2.1-10.3l78.7-61.5L1786.1,1057.2L1786.1,1057.2z M1752.2,1040.8l-59.8,46.7l-2.1-10.3l52.4-41L1752.2,1040.8  L1752.2,1040.8z M1718.4,1024.5l-9.5-4.6l-26.2,20.5l2.1,10.3L1718.4,1024.5z"></path>	<path class="st6" d="M85.4,14.7l125.5,68.6L242,0h17.5l-36.5,97.9l-3.3,8.8l-8.3-4.5L85.9,33.6l-50,134l-3.3,8.8l-8.3-4.5L0,158.6  v-18.6l23.8,13l50-134l3.3-8.8L85.4,14.7L85.4,14.7z M373,0l24.9,13.6L403,0h17.5l-10.5,28.2l-3.3,8.8l-8.3-4.5L339,0H373L373,0z   M0,438l11.8-31.6L137.2,475l8.3,4.5l3.3-8.9l50-134l125.5,68.6l8.3,4.5l3.3-8.8l50-134l125.5,68.6l8.3,4.5l3.3-8.8l50-134  L698.4,266c4,2.2,8.9,0.7,11.1-3.2c2.2-4,0.7-8.9-3.2-11.1l-133.8-73.1l-8.3-4.5l-3.3,8.8l-50,134l-125.5-68.6l-8.3-4.5l-3.3,8.9  l-50,134l-125.5-68.6l-8.3-4.5l-3.3,8.8l-50,134L11.3,387.6L3.1,383L0,391.2V438L0,438z M0,279.3l80.8,44.2L89,328l3.3-8.9l50-134  l125.5,68.6l8.3,4.5l3.3-8.9l50-134l125.5,68.6l8.3,4.5l3.3-8.9l50-134l125.5,68.6c4,2.2,8.9,0.7,11.1-3.2c2.2-4,0.7-8.9-3.2-11.1  L516,26.9l-8.3-4.5l-3.3,8.9l-50,134L328.9,96.6l-8.3-4.5l-3.3,8.9l-50,134l-125.5-68.6l-8.3-4.5l-3.3,8.9l-50,134L0,260.6V279.3z"></path>	<path class="st6" d="M1440.4,1451.4l-3.2-1.5l3.2-2.5L1440.4,1451.4L1440.4,1451.4z M799.1,2000h28l-52-24.6l-10.4,8.3L799.1,2000  L799.1,2000z M899.2,2000l-97.3-46l10.4-8.3l114.8,54.2H899.2L899.2,2000z M999.3,2000h28l-177.6-83.9l-10.4,8.3L999.3,2000  L999.3,2000z M1099.5,2000h28l-240.3-113.6l-10.4,8.3L1099.5,2000L1099.5,2000z M1199.6,2000h28l-303.1-143.2l-10.4,8.3  L1199.6,2000L1199.6,2000z M1299.7,2000l-348.3-164.6l10.4-8.3l365.9,172.9H1299.7L1299.7,2000z M1399.9,2000l-411.1-194.2  l10.4-8.3l428.6,202.5H1399.9L1399.9,2000z M1449.4,1976.1l-423.2-200l10.4-8.3l412.6,194.9L1449.4,1976.1L1449.4,1976.1z   M1448.6,1928.4l-385.1-181.9l10.4-8.3l374.4,176.9L1448.6,1928.4L1448.6,1928.4z M1447.7,1880.7l-346.9-163.9l10.4-8.3  l336.2,158.8L1447.7,1880.7L1447.7,1880.7z M1446.9,1833l-0.2-13.3l-298-140.8l-10.4,8.3L1446.9,1833L1446.9,1833z M1446.1,1785.3  l-0.2-13.3L1186,1649.2l-10.4,8.3L1446.1,1785.3L1446.1,1785.3z M1445.3,1737.6l-0.2-13.3l-221.7-104.7l-10.4,8.3L1445.3,1737.6  L1445.3,1737.6z M1444.5,1689.9l-194.1-91.7l10.4-8.3l183.5,86.7L1444.5,1689.9L1444.5,1689.9z M1443.7,1642.2l-156-73.7l10.4-8.3  l145.3,68.7L1443.7,1642.2L1443.7,1642.2z M1442.8,1594.5l-0.2-13.3l-107.1-50.6l-10.4,8.3L1442.8,1594.5L1442.8,1594.5z   M1442,1546.8l-79.6-37.6l10.4-8.3l68.9,32.6L1442,1546.8L1442,1546.8z M1441.2,1499.1l-0.2-13.3l-30.8-14.5l-10.4,8.3  L1441.2,1499.1z"></path>	<path class="st6" d="M1427.9,1457.2l12.7,6l0.2,13.3l-23.3-11L1427.9,1457.2L1427.9,1457.2z M746.4,2000h28l-19-9l-10.4,8.3  L746.4,2000L746.4,2000z M846.5,2000h28l-81.8-38.6l-10.4,8.3L846.5,2000L846.5,2000z M946.6,2000l-127-60l10.4-8.3l144.5,68.3  H946.6L946.6,2000z M1046.8,2000L857,1910.3l10.4-8.3l207.3,97.9H1046.8L1046.8,2000z M1146.9,2000h28l-270.1-127.6l-10.4,8.3  L1146.9,2000L1146.9,2000z M1247,2000h28l-332.8-157.3l-10.4,8.3L1247,2000L1247,2000z M1347.2,2000h28l-395.6-186.9l-10.4,8.3  L1347.2,2000L1347.2,2000z M1447.3,2000h2.5l-0.2-12.2l-432.7-204.4l-10.4,8.3L1447.3,2000L1447.3,2000z M1449,1953.5l-0.2-13.3  l-394.5-186.4l-10.4,8.3L1449,1953.5L1449,1953.5z M1448.2,1905.8l-367-173.4l10.4-8.3l356.3,168.3L1448.2,1905.8L1448.2,1905.8z   M1447.4,1858.1l-328.8-155.3l10.4-8.3l318.1,150.3L1447.4,1858.1L1447.4,1858.1z M1446.5,1810.4l-290.6-137.3l10.4-8.3  l279.9,132.3L1446.5,1810.4L1446.5,1810.4z M1445.7,1762.7l-252.4-119.3l10.4-8.3l241.8,114.2L1445.7,1762.7L1445.7,1762.7z   M1444.9,1715l-0.2-13.3l-203.6-96.2l-10.4,8.3L1444.9,1715L1444.9,1715z M1444.1,1667.3l-0.2-13.3l-165.4-78.1l-10.4,8.3  L1444.1,1667.3L1444.1,1667.3z M1443.3,1619.6l-137.9-65.1l10.4-8.3l127.2,60.1L1443.3,1619.6L1443.3,1619.6z M1442.5,1571.9  l-0.2-13.3l-89-42.1l-10.4,8.3L1442.5,1571.9L1442.5,1571.9z M1441.6,1524.2l-61.5-29.1l10.4-8.3l50.8,24L1441.6,1524.2z"></path></g></svg>